<mxfile host="65bd71144e">
    <diagram id="-5TB0MCmWk3LBMcbtgub" name="Page-1">
        <mxGraphModel dx="1306" dy="1781" grid="1" gridSize="10" guides="1" tooltips="1" connect="1" arrows="1" fold="1" page="1" pageScale="1" pageWidth="827" pageHeight="1169" math="0" shadow="0">
            <root>
                <mxCell id="0"/>
                <mxCell id="1" parent="0"/>
                <mxCell id="13" style="edgeStyle=none;html=1;entryX=0;entryY=0.5;entryDx=0;entryDy=0;" edge="1" parent="1" source="3" target="7">
                    <mxGeometry relative="1" as="geometry">
                        <mxPoint x="370" y="320" as="targetPoint"/>
                    </mxGeometry>
                </mxCell>
                <mxCell id="3" value="" style="shape=image;verticalLabelPosition=bottom;labelBackgroundColor=default;verticalAlign=top;aspect=fixed;imageAspect=0;image=data:image/png,iVBORw0KGgoAAAANSUhEUgAAAggAAAFHCAYAAADEGrRHAAAAAXNSR0IArs4c6QAAIABJREFUeF7snQV0FskShYsAwYO7Q3CHxd3d3V2Cu7u7u7u7u7sEd3d3DwTe+SpM9k+QFzaBTdieczhAMtPTfbu66lZVT5e/z58/fxZzGQQMAgYBg4BBwCBgELBBwJ8hCD4jD/Cst2/fSqBAgcS/f/8+06hp5Zch4OrqKvxhrv6N+UJe3rx5o+MLGjSo+PPn75eN9b/U8KtXryRYsGA+juenT5/kvYuLBLK3Fzs7Ow+QfvzoKh8+uEjgwIF99L3ICDL68eNHbftXXp8+f5aPHz5o/wMGDPgrX+WjbbOGvKJzwfHDhw96r0+vNdpFPsDNs2z8aLDYC55B/9j2ibZcXFwkQIAA+uffvLxEEC5fviyvX7spM+sKaB9QokeLJsGDB5d3797JvXv3xJ+dnUSKGFEngevV69dy9coVIUQBcIEDBZYwYUJL6NCh9ZkHDx9KqJAhJWTIkB7aPnnqlHz+5BbY4LmwYcNI5MiR3e9hsp88fSpPnzzVhRksWHCJGjXKDwX73r378vLlCxHxJ+hiJiZSpEjuffXuJCAk8xcskPz58knYsGEFzOLHj+/dZgUl8eTJExUgFgN/+NmHjx/F/otARooUWYIHD+b+Ln7/7Nkz/b+Dg8O/YgCtztCX9+/f6wLCEP7qi3ex4P7fwrp//75cv35dYsaMKREjRvzV3fLQPphcvHhRjhw5IkGDBpMiRQr7+Bwx/6wr5AZM7t69K7FixfruOOlP3Lhxf0rBeRU0S9n9jPL8Xttg9+LFC9UfESJEkNevX+tatre317EOHjJEGjdq5CMG1dIzgb8Ylc1btkjOHDm+0lfXr9/QuSxYsKAECeJzhpyx0vb58+ckf/78XoX7H933+s0bOXv2rK7RxIkS/aM2PD/0/PlzCREixC+RKetd06ZNl8KFC6ks2F6qI20ID+v94MFDkidPbgkSJIiPjM9qBNxoP1WqVF/Jxo9etHTZMkmdOrXEiB7dA0bo+0OHDkuiRAklRowYPtrXn23MSwShU6fOcvbcObl37648fvxEkiRJIuHChpUmTZpI0qRJ5Pjx4zJk6DCxtw8orVu1koQJE+pi3X/ggFSoUFHSpE4t9oHsJXDgIJIkcWKpWbOG3LlzR8aMHSdFixaRwoUKeeh3XMd4EjVKFAkfIYIECmQv+fPll+rVq7nf8/TpU5k9Z46cPHlKXr58KXb+/EnTpk0kffr03x3/4MFD5MqVK0pOMCAfPn6QfHnzSc6cOX4Ws2/ejxJu0qSptG3bRqJGjSpt2raT0aNGerttPKLFixdL6NBh5MHDB3Lp0mVVkIcPH5JcuXJL4MCBpEL5CipMtkZ5+/Ydcu36NSlYoIASoX/rQskeOeKsxCZHjuy/tBsohf379+t4Y8eO/cN3XbhwQQ4fOSJ//fWXxI8X75f2y3PjkKUiRYtJi+bNJFr06JIo4d9z51MdGTJkiLRo0UIVD+Rg8pQp0qVz5+8236x5cxk4YICPEWbrRRhwiBjkxCcIInN84MABuXbtupQrV1ZWrVotceLElqRJk6rOyZEzp6xauVINk3cv+r5ly1aJFi2axIwZQ4YNGy6NGzdSQmnr8R1xdpZFCxdJx44dxcHB+++1+o2cODsflW3btkqbNm28O5wfPo9O3bR5s+rHvHnyePtdzNPESZOkRvXqPi5Ttp2rUaOmdOnSWcmt7cXcWfqe+YMAz507T5q3aC4hHRy8PT7bBrZs2SLokxIlSnhwZP/fS9p36ChlSpdSYmEbxbx586bMn79AcufOpQTi37y8RBCePn2mbGzWrJmybv0GmTtnjiqeECGC69+LFi1W4eKeCuXLSYECBdSDswjCgf371OvdunWbTJ8xXTp36qSC+D2CEC9+AmnbprWULFlSFyIRCSIV1nX/wQPZvXu3KlY85E6dO0vQIEFl3LixPyQI6dKnk4wZMmjfNm/eLEuWLpXx48apF3L5yhV58fy5RhjixI2jkRAYMILlFkL6LMmSJdX3sZgufPl5mDBhJHasWNqmRRBQhrNmz5aaNWpo20ePHZOIESKoYf/o6qqskPbB5OrVa0q8MKQQIltjwe/xTA4dPiy5c+XSiIR6n5cuSbdu3WXunNnfDZfhEQwePFjy5MkjGdKndxdA3nPx4iV5/PiRthU+fHj1thgj3jTeGGRn3/79kiVzZtm2fbsa0MdPnmgIMoSDgwTw71+x4XJ0dJRQoULJqVOn9O/Hjx/r88wZRJIo0fTpM5QglC1bRrFiTs+dOyfv3r0Xkc+SMFEiCR8unLZ5+vRpVcDIHL+jTfqmRNDOv6RMmULHAq7HT5yQT66u2n8UhIvLB8EwxogZQ9KnS6dGg/EcPXpUQ3bIavTo0fWPLUGI5+go165dk7t374mr60f1MFiY9JP34CEQRn7x4rm2ESNGTPn0yVXbQS7Bcc3atRo9ssKzVuTnytWr8u7tW7G3DyQJEyZQw3X+/AUpXqKEzJg+TcKFCyfxbAgK/bp//4E4hHQQly84JkiQQPFk7jCOrp8+6RzEiRNHsTpz9qyOD4PCHAUKFFiqVK2ish0woL3Ei+eohq5MmdLaxq1bt+TGjRv670RgHz68TJ8xQ6pWqaJRwE0bN0mUKJEVdzCPHiO6OgSEui9cuKjyz++Y++jRo6k3v337dokePYb+GwwhyUTSkJ8zZ85I8mTJJX36dPoceHIFChxY5d1a28jNpUuXhIgYkUZk5MbNm5Ivb17F//r1a3ovsgBGcePGkd59+kr8eI6SJUsWSZw4sRQsWEhGjRopr1691ndFiBBe141t9ILoCmNgbt++fSfv3r2VZMmSqQy8f++iTgm48AzYhgoZSiN0EIRGjRoqAUWJM7dEF27cuKnrtFOnTh4IAu2fP39eZZ/5SZ48uc437z5+/IRGRhkzchYrdmwJEzq0ziFr6fmLFxohJHLr7HzkK4KAnLDGSUy9fPVKYsWMpfL57v17+eDyQbFhXnkvBO3e/fvy+dMnnRf0j7XODx8+Ip8+f9LfXb9xQ8cGQcCLRTe9fvNaggYJotiyLo4dP666C6zsWeOJE2vbt2/fVtnjefQf+NRv4KS6nnGyFhn3+QsX9D5wgMTbevOsGaLHr16+1DXl4BBSkH2i06w3KwKGY8i8Mr5atWpL7dq1JWDAACqf/Aw9duLECSHiAy6ZM2fSOZi/YKGu0c+fP+m9OLKsn4cPH+qaQI+ApWNcR20P3Q/+dnb+JEWKFEpwwYWfswaDBQ2qY2DuT50+LUmTJFGZZl2lSJ5cdRfvoe2bt27pXFn94122BAFHkD6z3l6+eqk6i776CYJgWd3x4yfI8hUrZP26te6GGO9k0qTJqtAYpH1Ae6lVq6YKgEUQFsyfp4uAyd+zZ4+0atlSF8KPCELtWrUkX768aniZxO+FgZmMZs1bqAIdMnjQDwlCXMe4kiplKhUQJvXW7dvSvFkzNWoYxCePn6i3heLNmzePeicoPLx0QvoF8udXBbVx40aBpKCInz97JpkzZ5YUKZJLs2bNNYIQJUoUyZkrt0CMUMQtWrZS4oSyvnr1qgow7aOoeAfRFfDh3vr160uUL+kUhIu0BbkqmLhlfCAnEIR5c+d8d7wssHnz5ol//wGkUKGC7h4Vi3TgwEG64F2/LLqAAQJoNAa8GTsKfOzYsTJw4EDJlz+/NG7UWIIEDaIKgz6m/esvjRad4Jm8eTRyM2DAQAkdJrTEjBFTXrx8IXfv3JGMGTOqHIwbN17evnsrRYsW1YW2e9duefjwgaaG3r1/Jy9fvlJvmnH16tVLSpcqrSQAYkXfkiRNIq4fP8qu3btV4bDImLO1a9fJR9eP8ujhQ3F0jCfJkyeTfv36q6ykSp1KFd2uXbs13QORwxCwsMuVLavPWxEEFvrq1Ws09YQcPXz0SFKlTCnZs2eXo0ePyaZNm1QRbN+xXVNfVapUVuVToXx5xRElny59Bjl4YL+7t4QR27lzl1y4eEEV//MXLyVa1CiSK1cuxbpW7drSs0cPiRkrpmTKmNF9Hlljx08c15AyY8aQVK1aVRU+sj533nyRz5/l4aOHGs6sW6eODBk6VBV2mjRpVGkFDx5CWrVuLR07dFCllypVSo1oLV2yWMnJ1m1bVQEHDBBQI2iMLXOWrLJt6xbtR46cuaRNm9bi385Obt26LZEjR5JixYrpmmUOmFsUJwalb5/eqjRLlCwlTZs0UeMKAcVrQ54WL1mi7yRsTbRwytSpSgZZC8GCB9OQPUSCC4M6eMhQDQODSatWrWTP3r2yY/t2XYcjRo6SUqVKypXLl1U2KlasKH369FGjBwkG26JFi0nNmjVVPh8+eizPnj2VZk2begj9YoCXLVuuxIxU6eHDhyVMmLCSIH58JR+PHj9ScoxxWrBgoZJPnAOLINDf7t17KEHEYWBN3L13T3r36uWBICBjyADrgXX3yfWTtGjRXOe0b79+UrZMGfHv306NC2slR/bsGlresXOnGsAggYNo29zjOYIwaNAgQWAh7/cfPFS9kjJFCgkUOJBGZ1k/dWrXltOnz8iOHds1eouOYWxly5SV2LFjybLly+XcufMSLWpUTdVCdLJmyyqZM2WSbdu2awQSA47xz5Uzl2TIkF6dMaK7rF1wQH4gKxCpN6/f6LpiXpBPHKaGTk4SKVJEyZQpk6xcuUqJTyD7gGqIcdbSpk3r7rw8ePBARo8Zo4QOrMKGCyvZsmaVTZs2i4vLe6lQoYLKSe/efSVr1szaZt269SRlqpQSMYKbQ4euzJ8/n1y7fl3WrlmrpAJPHN05fMQI1dXoFBwXnMFmTZvIgQMHZc6cOTo+cOJvDPTt23ckcJDA8uzpUx1rmTJlVF/fu39PHVzW319p0iiR3bBxo8SNE0fxghxBwqpUqSK379xRGSJq4c/On/YPWSVq0KlzF40gpEyZUiZPniyvXr+RiBEjyIvnL+TS5ctStUplv00QUDL79u2T2bPnSNmyZVXIli1fIQ2dGihjPHDwoKYYMG6weRh3/Pjx1CjDqr5HEBzjxdfQLx4XrI1JRWg9XyisrVu3yoCBg6Rnj+66yL53kWKATbOo+fvy5UtSuHBhbRsFz0TCJE+dPKneSfny5TQyEjVaVMmVM6cyY8ZLiL//gAFSskRxCRU6tBoPjGLp0qWkffsOXxEE2HurVq2lf/9+qmhQRigIlNmevXvk0sVLkjVrFjUsc+bMlYyZMkn1alV1GAjTnLlzNb+q3t2XjWyeCQJEAgOBULGnA8WHQDs7O8vadeulZo3qqkS5WITNW7RUg4yXhEBD7KZOnaoePxGH4cNHSOLEifTfGI7x48aqENMenmb9evX03rnz5qmCJLqB8sTrrFGjhrLmHTt2CKG3Ll26yOLFS3T+a9euJY8ePZLevftIrVq1ND0F9k2bNVeDhGfRf8BA6dy5k+DVT58xU+7fu6fpJfDnOfL19IU5xNt89Oix7D+wX9tv366d9OnTV9KlS6v5YNouX76CDB8+TEkZCoQ5hcxCAJQgpEkje/bsVYxpm/Gw4DGwSxYvVhKCgi5evLjMmjVL3rx5K3Xq1JbeffrouJE5IjwLFy6SYUOHKMbIybFjx5REEHZ0jBtXDW3/Af2lRfPmqrSSp0gpZ06f+kpcIQgYqSZNGqtxx8BCoCpXqqhkGY/00ePHcvLESY22jBkzWgkC0a/GjRsrIUNOUqVOI4cPHVTlC0Fq07atLF2yRMdPG82bN9PNfFzcnyFjJneCkCdvPlm3do2SSsLnBw8elMKFCmu0AGPBWsEYNG3WTI46H1FcK1WuLDOmT9d5wglgbgoXLiJnz7nlZ4kCoFCr16ihRDFrlixK9Hi3bbgewwum2bJllXr1G+iYO3Zor/OCnEyZMlm2bN6sBKFb167StVt3yZghvc63lWIYMniIpE6dSmV96rRpUrJECfUWrQuCMHPWLCXjcWLHlp07d8rQYcN0viFhREPQVay5rwhC40by+NFjlfexY0crvty/YuUq6dO7tweCgIxi4HEmXr54IT169JRdu3aqozR27Djp17ePrlP6gmMFgeratZvqhgIF8qscjRs/Xt6/e6/rw/bCUKdOlUqJG33GIVm0cIGuczxcnIAhQwbL+g0b5Pmz51KtWlXFcuTIkRI3rqO2X6x4CRkxfLgkSBBfUzbTpk9XXQTBXrp0qeo1x3iOsnfvXp3vDh3aS7fuPVTHNGvWVHUHOhhSgIeMszR16jSNsuA05MtfQFauWK73oZ/ad+gglStX1rlEb0Iiq1WtJsGCue1NwrAy/qZNm6ru11Twh4+yYcMGTwShj/bTIgglShTX9cm6YR6IhqRN+5eSywwZMqhnDya9evWWXr16qvFGNho3aSrTp03VqAghfSenBpIwQQIdD45GsuTJdO1CJpjvFcuXqc4jWo3tIDJClIn5Z61Xr1ZdsWS9tWvfQebPmyvbtm3TNBHEEPlkPRMZJDrer/8AJQhE4ipXriJTp07RKDIO2uTJU/w+QYDxk9fBK0ieLJkK9ImTJ6Vli+Y6YQAPQZg9a6YCefnyFTWKMFgY8o8iCBjJ3LlzS4CAAZWx4pXbXggmLJe9CIUKFlTP4ke70SEIESNFlCSJk6inSAh746aN0rVLF1XmsPj48eLL7du3lI2XKVtW7PzZadgH1u3Pn52UL1dWFV+fvv00fcBFFCBGjOiSPHkKad++/TcJQpeuXWXK5MnKYgm37tu3X8NeEIIwYUlRxFZ8aCt8hPC6b4ALgUdwCW/Cyq3LliCAOUZ32bJlGia9c/euRAgfXrJmzaqCOnbceN20hcfAhdEk1YPQv3//TkO/LCa8CTxTFl33Hj2lU6eOunkmY6bMsnPHdjWgGKR169ZrhAiPfM2aNaogsmfPIaNGjdKoCB4BfUIJjxw1WkaOGO6BIJAXnDFjhnp5VshwzNixikGsWDFVIQ4dMkSxWrJkqdj5t9NQG0Rx0qRJqugxIBMmTpIY0aOpESNMSoSiQ/v2HggC8olHuXHjBlWOkIhdu3bJxk2bpFbNmkoQ8LqnTJmimOfIkUMXMYodA3vsqLPs339AI0aE+tgsliBBQkEhQfR2794jlStXUmVAHhRjYxEEFDOGkigBcwtpqlmrtrRv30491WTJU8jZM6e/SRDAtGFDJ/0dBgbPuVfPHkrOiC7hvZw5c1YxtggCXnm1an/v06H/Rw4f+rLuLkubNm1l6dIlul5RxO3atfXwbluCgGInmgBm3AvZA/cnT55qagoDwu8aNW4izkcOK0GoVr26rFi+XOeNPUmQrCxZssrlK5c9EATWE14tXjWEoVjRoh72JkBgCO8SBblx84ZGHrZs3SqVKlaUYcNHKAlbvXr1DwkC/aBtvHYiBRBKCIMtQYAUMo+MhbTJxIkTZfDgQWpsMYhEFPF+lSA4xpVkSd0iCOxB2Lt3n44Jg8JFNJL7Onfu7IEgzJs/X3GCCKFLWrZqJfv27lFdM2XyFDXgOAbIOfKB0cZotWvbVpIkSazrCAeM932LILDGWRtuxCiXrF2zWrGE3BDR69atq84dBrpE8eLa13Xr1inBq1ihgpL//fv2KhHViNy6dUrwiFyRGkJXEiZnbeHRly5dWrp26ybZs2WTggXddBTRIXQ6csmGWzzhevXqSaZMGT0QBIweUSycCy7mBtJO2slKM7Du6MPz5y90Qzl715IlS67rz2MEwSNBYE0hn6xv1iSYlSxZ4iuCMGPmLGnTupXKBk5RA6eGMnrUKDl95rRs2bxFWrZsoRFi+srmRxwoK7qFPEN8iLLgKPE8kTVSW0Qb2KNXqmRJtVPo7ZKlSsvqVStVfzPHFSu6RT8Yy9Vr15Qkjxw5SgkCpL5d+/ayYP589zXPOiUC56dTDHjHeJtMDB4/F6wtRPDgaigJ80AQzp87qwaGcFb37t0lX/58ki5t2u8ShPgJEkr3bl2lUqVKXylQfoACZQ8B0QrIASEl2mdB4XXzOVLoUKE8PAtBsPYgoMRYEOXKl5dpU6cqyw4bJqy2c+zYcdm9Z7d6flbIkXHiZQQJElTHibfRp3cv/T8XYVWMwLdSDDzLopo6ZYoSGDeCsE8jF+vXb1BDi2ElXWG1ZXl2fAVCmgDGiiH6HkGAtMycOVN69uypRo+9DoQrWbzshXBqUN99NywYoYwIiUKM7t29J0WKFlHvnT0ZIUI46O9JiaAcMBx7du/SvkMQYPN4//xuzZq1XwhCdiUIsGeUCPPDjmH6hBJU1uzioiFP8onsjWjQoIEyZ/rTuk0bqVypsqZyxk+YKMOHDVU88WJQsHnz5lUlQiqLsC/7EMqVryDTpk5RgrBu/Xo1SBZBSJsurcoFYen8BQrIxg0bdJEiG/SfvDbpIiuCwDgSJEygEQHuY/GjPCEILHzGVr1aNZWxaNGiK7ml7SZNm0qzps3UM1q1coW7J2wp9l2790i9unXcv9qp36CBtGvbTqNoPyII4A9BAAP29hw/dkyjA8wFSgelxWZMIjO/giDkzZdftm7ZrOPF2LPfJ0+evDJ37lxJnCSxkinkAYwOHTzwhSDUUA+LtQUJOHsWgpBFrl27qtFCUibIDBdEmGjX6VOndSxEbqyL8PiChYs0agGJYY8C/cFY43mSLluxYoU7QSDVhpeIwfK8SREjtHz5Ck1reSYIRDeLFimiu99JiUASifIhuxA7DwTBJsUAQaDvq1etkn79+uk7SQtABrp36+ZOEJD3xk2aaESNfDTykjtPXsVLCcKUqTJ0yGDFeOnSZfLx4wfFiOheo4ZOahiQI1JfFy6c/yrFQAQhW7ZsGpmxCAKpX4w9Dg4EoU+f3hqef+/yXqMhyBPOXPBgwTTykCt3HiUVEE70waJFi9Qoom/QgTlz5tR8PBfzzQbMDh07aVqRKAdkav369XLo8BElTqSs2rVvJ5UrVVL9lr9AQVm+bKmSFnRU9x49ZMCAAdo+F+ud/truD0H2iVIhP7v37FESdmD/Ad0LwRjAhD7kzZNbx0+KgUhQxowZdH0zXkgtaQWeJ5IBufO8SZE17uTUUNc2BGHb1m1KEOgrz48cNUpTQOgo68s362s75Bfn69ChQxIvHvtb/HnYpEjbpNzAFoeK6ErjRg11zMguzhlkYtDgIUoQYsaKpZGVtWvWqL4j2sK+rWLFivpdgoBwoDiIApB7xBPj2rt3j4waNVqJwJu3b6RSpcoKPAz03Plz6u22bdNGFT5fPiCs8RO4fQ5ILhTlkzBRYvXmyOsHCBBQQ9GEJK2LjVosAHZ9pE6dRpV6kMCBpUKF8prnunnrprRp3dqDZwJBwDtPnCixCjYM+cH9e8IXGkuXLVVGi1AfOnhQQ4IsbISK/HHQYMFkwfwFkjxFcsmbJ6/MmDFdXF0/qbeNsLAJjL5bmxRt9yD8iCCgjNjpmyF9Bn2e6AUCbaUDIF4zZs7UvDdh7W+lGGgD4zh7zlzNB+NVEh2BmRP2un3rlpQqVcqdCetu5U2bNA0BgYDEEfonbMi8oRxh5CgolMLPEIT7D+5r6IwNdMuXL1ejwkJdsGCBksNy5cppGgLSwgas9OkzyKXLl5TsweRRbF4hCMha0WLFdFc+CgMiQXSoU8eOMmr0aJ1fcpeJkyTRd1+7elUVIsRgz+7dGsJEYVt7ENg8RJ8I2YI9RIm9BSikkydPyoCBA9VA4SERniS0yHvZH3L1ylVJlDiRhrFtL8s4PXv+zC0NceiQblIiEoSi+RFBgBRUq1pFwoQNKxMmTJDmzZtr39KmS69GDAW7ZMkSjQZ9jyAQcgafcOHCairBiiCwdiBEkCw8W8bDmLNkzeaeYmDOGzSor543axw5aFC/vvTvP0AJLdEvvGYiGyeOH/shQWCPyPjx4zUaiEcIthhMQsdEc5AzCLJ1MXetW7dRAjBr5gwNQ9esWUtJ7/jx49Sg2xKEvn37arQBjNknULBQIfevGH4VQcDLrFylitSuVVvxXb1mjTx79lz69+vnThAYR7169XU/RVxHR5W7OXPn/R1B+A5BIGW6d99+KVWyhMoon8IRyfO8B8EzQciZM5es80QQBg0aqA4Pug7HhnVJ1I+UHaTJLe36XtMz6Drei1FijxGRWQwd5Ovtm7eaG+cZ8uYWQUD3kHtfv2695ueJXpLLR78TQQCj8uXKaWqVz9SJZuI8ErFknw8blol6WpFfDDNRZ1IbRBrxtiE5RHTYJ8BXK2wknjBxgtSrW1cJDAQhYqRIUrRIYY08bN+xQ9NxREJY+zgQefLm1Y2PRKesrxh+RBDQu+MnTNCIWfbs2TRl8eLlS43WsAeHfT6sPZwgty8Q7L5JEDZuWK9R80mTJ0nWLFn1E1gikn/9lUbXQ5eu3ZQggGvbdu2UjKVLl04OHzksx48dl3r16votgsCGLzwK2CIMmTArO+rLlC7tns8k3EhYBRBQhBg4FpR/O/+6uAEUDwqigAAQ7rK+WYetkZogV0SYkbwcKQbyxbly5XRXIoR4UKLW99VubDSI1K5VU40lbJhPJ22/hd+8eYsSFIwsrJ0zHOgL4R0EE4+C+2PGiKG7g/FUyX/j8RORQGgZEwyT/BVeEmcr4BUh8CjbhYsWueda2RDDQiFSgUJmY5v1yRmGkM2AvJt/k5PkPjYLwYqtCAJGiH6zWKxwKGPl/bTJ56Ju+yIuyZSp06R/v76quBFm9mywVyJzpsyaz7U2OMKyCdk+evhI5wfyRV/oGwsR761J40bKnMEKlkvKiEXMBk7wQBmDA2SErzuYzyFDhqpSADvahvRh1CBvPEcagHewP8CKRsCUQ4cJo/PA2LkPg0QUgnuJcPA34UPmDPJCSJj+YkDwQPHm+bICzwNSADbkzd++eaN7KHgXez7Ama9uUEikNpA/6xwEvFj6gmeHIYKs0XfGD84Yd3byo7BRQigjFjJncVSrVl2mTJ701SZaK/XD3DIuUgAoAuSE3/Xt20/TEp4v9iCwwQuMibaQtsCIgiOhT3AMGSpIsH95AAAgAElEQVSk7iTnyxIiJez1YI3ZfubLPgPWJ143Sp4UEkqVMeD9EObnU1+8fNYC+xjYzGfls0eOHOFGkMOEUSxYu4RXUV7skodg4J23bt1K25w5k5x+PcUbD5C+YxjoF3JFWDVP7tyKOe/n/FZIKk6A588f+ayX3dyE3HXn/LFjut7Zv2FFKG7evKXRBNYuOV4whYziITs1aKCeKTvX0VdRo0bTNKBtlIL5RhYwIMgMUT10D0aP9Ya8sBZZT6xTSBTrhsgcmOo5Fs7OKiPhwobTDZZukS63SCD9Yb6QU+aOvS4rVq6URg0bqn4Ck9KlSqnOYXzgDil1279yXM5fOO/2hYujo+5fgWjYXitXrVKDwufN9GH4cL6waKT4INt40oTZaQ+88ci5iPKxCZA+oatJdzL+aNGjqT7AYUP30Qbrm42ozA8yxBrlvUR1uIe2IWFEUEjDojNu3rihZATiiW0gEoSTxZdtyAQp6Af33fQmRB9cLceH0DyfZ+NosF7Y58Raf/rsmWL08MFDJRr0l423rFP2BLChlY2/6DY2NLOPAL3B5kneR7+QX/btYEeQKQw8UZ9yZcvJ3Xt39V4iiOgZLsaFPgA7IiPIO7idOnVadSBpauQX3UTUi5QT6xsMWQ84fk0aN1a9hDyREnT54KJ9ITKNjkce0H2sPwjTgf37dRMnmLCRkhSMnzgHwRJMmBWCzOKzQtUsKOuQEmthWIfVMEn827pQHtZpU9ZpUfxt+3vaYqJtLxaRNXH8HNDpC32wvZh4+medamW7+YlP4Ajj6cVpYTanVNGO1R7volV2cOtnYx8/uu34DhjQnXBYY+d3jJHfWblr698IibWJh7YtjGjTOsGPZ/m/hSvvtp63xoURmD1rtiqCfPny6Y8t7Kx5gFwgbClTpFSChPCRw+RnhFERbAsLa6z0weo7f/NzlHzIkA5qWK1Pz5gL64Q4q+/0k/YYPxfzisEjVMyCsfC3CJpnHK1ned6SCX5mYWFhZds+v3f77M5O/9BfWzmz5sgan61cWqeo8ZztPHCP1Z71bqvvlqFr1bqNEgBrHwFfZKCY8GYwACgocsa2n+Fac+cuJ66u6r1ZuFmpsG+dCwBB4OsSvk7giwvrMCzGz3N8GkpIk7as34MLl+0JeBY+PMfPIdPWaXzW6XwWZozN7WudwPo3X66wEZD2WQeWTHI/7fA3OIK/1ab1aas1j7bYWuvVSgPa9tfzKXKMw/r0z3ov/bX6b8mONU+sVQgLXybZ9snCy1qjtvuTPMuxJZ9W/6zf837reTCi3+BuK3+W/FtY2uoca51yDwbZwsj2fZ7XkfV/S9bpA+P3fLqh9dmuhZ/ndWqrc9zkn7Xqpsfov9VP7mOM1rhsx8PP+WM5VdYatD191JJx3kEbjI3fWxjRT55j/N/Tm7a6ifst/Wj19e/neId/bcd6B/czb5ZcBrS3V5nl0nGjY77oDAtHSzaskzFt59u2L5besNYQY7KwhCAwXvrB857HzeemRLXpq619scWfPlvjoL+2doB38udH++o8GL9f9B8vnYPwi95tmvUCAgiXfnfr6qps2jql0vZRhJMvL/CwCeHDzPGc8P6s6MD3XkX7bIQjXLZr9y6pVrWqPm+r6LzQTd0cCEHgW++ffdYr7f/ue8CFCBEHCJFTjRYtqpw4cVLTV3jdGO6hQ4dJ7969NG/rU2OGIDCf1ibF3z1uDA2bFLdv2/qvK6ffPXbzPoOAQcAjAoYg/MclAkNIOJrIAzlnQlq2m4a8Cg87rR0d47p/uubV53zzfVYIlVw5YU4iB3ytg5dN6JlwIX/+37HOPzNGzl3gvbab6n7mee/eixfDJ5vsuv4ncuDd95vnDQIGAd+DgCEIvmcuTE8MAgYBg4BBwCDgaxAwBMHXTIXpiEHAIGAQMAgYBHwPAoYg+J65MD0xCBgEDAIGAYOAr0HAEARfMxWmIwYBg4BBwCBgEPA9CBiC4HvmwvTEIGAQMAgYBAwCvgYBQxB8zVSYjhgEDAIGAYOAQcD3IPCvEwTrpC9OyOOwGa98T84BExzdy2d13zps5kfwcj43R95yrLLtRT84PY1T7zjsxyrSwT28b+u2bZIgfgL3okd8DsYpbhxkwYlXPn3RH4qAcEpXkSJFvNU8R9PqiV3Ro3vAl7MVOCnt6ZMnejKa7WE/fA8PVtTM4OQ4xsvpc5wjHjlSJPfPITkhjCp/1jn73uqop4c5VvXq1St6YhknEP6OC0w4GY6Sr/wbOdu8ZbPKBEVqrIOBvNMXPpOkTDGlrT1fnJrHgTYcMfxPL+toaE4J9Ilrx46dOv+cVMjnsBwljkx4Za3+zPvXrl2rdQE4pdI7B8RwxDhlpH+mDU51/fT5swQOFEhPxeS0TQ464zRGShlTUpxDbsKFD68n4SEHnFfBaYQcZkbVv+9d1M3g1EbrhFTu46RCTgTkELPvfSbbsWMnPWrYp3H+mTnxzfcii6yTbx1SRr85mIqjl2PFjOnhsDjvjIkTFjl1k7NP+Oz5T7/+dYLAIqMgEUfLsii98u31zl279NhOCu6gqH7mooAQJylyIJDthTFYtHixFsBp2qSxHrNqXRw61Kt3Hz1SmnoPKA3O5KaQCkevUurZpy8IwsqVK/WITsqseufq2bOXFC9e7KtDjDBUkAdqnNepW0fHYl2csT5r1mzp3KmTkiIqZ16/fk2J0+UrV/QYVPDn6FXmgKOdraps3umr7bPUiuCYY8icVY3Sp9r+XjuQwT59+2rhnSdPnmjZ3MKFC0n06DGUCHn1zAOUEzLKKW8cD2t7cQ48lQ6PHTv6VTcoHcvcc878P72ogTFv3lwfI1WTp0zRsx84JpjTNrNkyawHcPm04QJrjpnllErPJwd6FQvK6yKfVOv0ii6x2uVwKCoNcoolB4cFDhRYaxZwbDm1PjigjIPHMOoUd6IcN7UEODqamhxWMalv9ZPSztRr4ShmLk4npKgdx7VzLPT3ZCpJ0mRy6uQJH8fZq1j69vvQT9RK+N5xxOhpjjzmqHJq+Xg8WddF9R5HWFtFmLwyXhy22bPnaLEqjt7/0y8vEQTOGYet4cVxkItVuIOFxDnTsWLF1gWAoKNIMGqcOAdz42Q9FB7e4NOnT9QrA2QOmIGBwfI5050ywVGjRlFv3fnoUbl/777WIqfcq+1CZ9I59x9vBk8DgoGnzVnYKHHqiMPOHz586F7ogjPkaRcFTwEPf3Z2WiOcOhC0j7KjXxQooWwyJ+dxdjgeGH3v0qWregyc+1+nTh25dOmybN+xXct6ojSs0s+ehQUDQfERjvrknG7OA+dn9AUPnUIenLfOOd/WMa8Uf+K8/aDBgqrHfuP6ja8IAs9yUA9HLMeJE1ePYX748JFGNKh1wMWYXV0/qsKlyA615nnu0aPHeggPzJv/o/wmTZ6shWcqVar4pQb7B3Fq2EirVNavV1+PbeZdKDZIAJUtOTu8ZImS8urVSy2QxDn+RCisC9wwsNRB+PDBRZImTap9wXBSnwDcLl64oHORJXNmjQTxDJhyrvq79+8kkL291qn3TBA44fDdu7fy6PFjnXcKcHFENGfHM4/InBUBQsFTk+DF8xeSPHkynWsMNH2zTqlEblOmTCWhQoVUT3n0mDFagGzLlq1aIZPKk8g38kaEif7jtVB0iL9ph/XBiZdhw4bTiMeVK5e1cBhFpDjjHY/D8mh5f9as2WT58mVqJJgL5AM552x82qOuBZ671pe/ckX7myF9enejzzipEse58KxLzse3PClbgvDgwUNdH1wpUqbQGg54vRwFSxtU6KROAJ67dWnbN2/J2bNnJHqMGLJ3z149Rx6CQOVBao8w1xTngTwzT4wPIkTfqcVArQcUL7LDOkI5U/kP4rNj506tbQKmFEYDg4gRIqjCZn4sgoDxpZYBv7OiCkSw+Hm4sGF1Loh82Ub7SpcuI0OHDlFZo0YJcsZBYMgupJa1x5hDhgyl8oA80zeM8e5duzR6w/04ABSOo84H5aXTp0unOos1w9go5kMxKeR5xYqVKjvUcvjWhVxQ6njJ4kUqA+gAilbFc4ynBgp9yDwy/5xiSjTO6tPJE8e1LgBtUGuDn1M3gHWDfoVIgTd6mRod9NM6epiyzxQqCx06jHrQ9NHWSFJ35MgRt9LF1GTBQeNnyJpbVcHreoIoBhi9RGSN9xFds42GMGZqFlDADiLPPRAp5oe1yL95HuzRS3HiYC/i6TP+v9S/4RlqiiRNlkznG5yRW9YFmDGXt27f1toURGzpHwXh0qVLr2WXsQvUfUA3IIPoamQDnJk3hxAOqjPAF5ng5Ni+/fppPQ8iw9Srwc4RLXrx/LlGfNDX1nH41IJA3qn6S70Y5NgQhC/SzkRTDS5jpkyqpNZvWC9379xVox4lahRVElRqAzQ8vuvXb6iBwwMuV7aseuMUHaLSFwVEUBhHnI9qxUFCgSwePHqElDKrVy5fUeVy8NBBjSxQkMa6UMSUD6ZdhKx37z56vDAFWR4/eSw5c+TUM/IxoJSc5sIbfvnipVaNw2PesHGTLv7gwYNplTAqR7JQ6R9FZegfZVQxagh3q1attQ7C27dvpG7dumpEMGSUGebf3yIIEJcxY8dKrJixtI3bd26rEaX/4ELfEWAKwGAgqlSurAuV0sfZs2dXpbt+w0YlPBR9si4UEqHHNH+lkbBhwqgir1q1ihas2bR5k3Tt0kVvpWIj5/aD/YgRI5Q05ciZQwV+69ZtWgIahUBfMEpUqqTYEYuJhYun+OLlC6lZo6ZWyeOyzjAnHAvhI3KCgoVMNG/WTBIn/vvIYRYsBWkoboRB4v2QlMiRo0iHjh3VUFFem8I1y5Yuk5kzZ6hi4hS/Z8+eSoKECbWiGcqhSpUqHiIIVCScPGWqlCtbRt6+e6eyhbFJkjixXLlyVZV8sWLFJXz4cFq8h2I6/uz8aaln8MFY8B5yTenSplODgHIgOuTgEFJLRG/ZvEmjJkQTBvTvr23RP7CDaN65c1c4971qlcpKAulDjuzZ5Nnz5xI+XHixD2QvVObDKFEdD+NpSxCyZc+hc06BHgwkBIkiaNOmTdMCWFTYbNS4sRLg8uXLq9Lv26evzJ49S+WT4mJz5szVCnNK3iOElxLFi6uhtyUI1MhASd+7f1/TNYyf8ssY3hvXr0vYcOGkWNGi7gTBIk3de/SU8uXLKTGEwLN2GjdqpGuB0uOkGfr07SfFihaR16/fyKvXr5RYM+cUhqLS6c0bN7XfpUqV1LB9gYKFdI4yZsooyZIm0zkZMWKkeoGvX72SxUuWSsUKFXQeDh0+LGvXrNX1D0F6/PiR9p113btPX5VViDWnf0KyuSDJTk5OMn/+PF2X48ZP0PRZvnx5lRTsP3BQI13I6dq16yRX7lzqWdLHpMmSa2VKZBx9RrqjatWqmnaA2LCOIGFctF24SFEZNXKErmPWz4qVK6RPb4rMBfyKI0C4cuTMJQsXzFc5gABPnTZNq49ypj9jff/undy5e0/u37+n1UYpV2/1CX22YMFC6dmzh/aPIkMUv+Noc8gCVQopZQ/RIE3ao3t3LW7EGCmy9OTJY9VlYGVLEKZNmy4OIR20Wizzhvwx/xR6Im2Coc6ZM4caY5wA5uLN6zdy6NBBLXVtSxKoLkq9B/oEUYWUc7oqkRbaplQ7FVVDhQ6lc4hj5t9/AJUv9ADy79SwoWTPll2L0EGievXurZgSMWb+0E0QIUp7U6CJSrxEeUj/dezYUf76K63Y2weUHTt3SdYsmVUGJ02apMfQo1Nfvnwh27bvkPHjxmol2x6Q//rowZhKylatXq3jCxsurOJXu1YtJVY4UJClrFmzqGxgnygxbQjCF1GHobZo2UrGjhmtigQGjWeFskLgEA4YX+3ateWjq6uWx0SxoWB37topPXv0kI0bN6nn0LtXT211xowZKnjVq1fXMsl45lR2cyu2RFGY97Jnz16NJnRo38590WGcyNMiiDC8suXKS4/u3XQiEW4MIOWDUQbduroZS0qcUiULooFBpFragAH9tY8Ym6XLlsuQwYM0guD60VWFk/riKAXGhhHk+TevX0u9evW0TdgwKQn+/hZBsArbgA/4MX48gNevX+nCgbki2HgG/fr1lwkTxsvu3XvcS5yihCBCt2/d9hBBgERUq15DKOVK5UmrSAhtrl23Vvr17av9QzloDfrcuVQJw7pRvGikfXv3KSYoHPDAeL99+07LFoNR3379pWSJ4jJt+gwteYynZV14Aigk0gp4elwTJk6SmDGiawlTq6gW47cKZ0EQKGoUPVp0JZFt27ZVxYHxpP/Zc+SQXTt3yvETJ2Tc2HEyYsRwVbQbNmxUz6ps2bIeCAI1JygdO2P6NPUcmCMiGi1btFAPiIhJ+QrltQohODIHjG/9+nWqiDCYeBbx48XTSBHPdO7cRRo2bKgVCCHCzkcOK/lyaugkK1es0H5CIPG8URzMe9169aVXzx6ybt06CRc+gpZuZdy8j+gPZBdCTZtW8RXw0jK6GTPJkcOHlDQQ+QDrfn37KDGzajFQ5hgjhWJCrlGs9JsqcdOmT1eSTNtuaZF+eh9pH1uCAKHkWWSQiESGjBnEzp8/VdjMBcTYKiJlyTWlhEmn4W1BnChQBeHnvU5ODaVmrZo6P0SfMNoWceQ4auSO6EL2bFkVi7bt2iuRxDBnzpJVFszHSEZSY7J9+za5cPGSNHRqoHJEisGS0zp166pTkiB+PPXSy5Qpq4YfeZg5a7biji6yLfa0Zu1auXXzlpbJRfbpd5SoUaVsmdJqSCnLTCSCiBV1NTBckGtk2TFefB2vFjkKGFDXeY4c2TVK45kg0NdmzVso4aVCJWXDKQdPdc7vpTynTJmieq1Gjepq8Di+2yLzVrEf3l2jZi0ZNHCA4mARBOSDMaOj3HTnTB03pdWZq0oVKypZAu/KVapKn969NLLLH3SyVRDItkiTNdfMHfKPfiLCgBFGBvHcGR/zTHoV2WIO6Wv79h2UPGKArWvevPmKneUAoleRtzZtWmvEEVIzcsQIlUWKyN25fVvLTCMvEASiHc+ePtMI7+LFi2T/gQP6XLGixXR9IUPIFWudqGCpkiWF1CkOGxHUArS1Zo1Wk0X/Q6BolxoxREyLFi2q765Tt57aBaJu1Fnp26eP2hFSU0S+3cqxO8iw4cPVgWJ+S5cpK8uXLVVChAM5ceJEKV+uvCEI1uSjXFBAAwf0dwPp6lUtJTxxglthGfX6nj9TQ4lRO3nypCohwj2hw4RWDwzP68SJ49K6dWtt1lKELNBmzZorQSAcSeju2tVrEtA+oDx9+ky9NfLg1oWCRBBRhLA+vF0MbLDgwdUjQxgoDYuAduvaVR9DMRBixihjECEx5ChZUJCdcePH66LE4Nv5s5MYMWOoQiFq0L17DxkxfJjm2n+GIOCx9e/fX8kFyuqDi4vUqFFDlR2LgYqJbPYjTdOhQ0eZMmWyKn1+VqJECcWV0CXeoec9CLDzUaPHSKRIEaV6tepabhkvxiNBWKsRBIsgkEdnoyIXSnbkyJEaWQAPjGzQYMF0AcHMe/fpI106d5bhI0YqphAEsMJY0CdC+w3q13MvHIWHiQeJUbEqTBL6J/+HMaToJl4r5W3d6qB31ZLSRFC48CxZgKQj2CMyZsxo934S1oSo2e5BQLHjJUAcwRYigeeFUud93br3UDKEt9qv/wBxpSKnfFYiBCHAo0dJkyIglMj48YwbNWoojo7x3AnC7dt3pH6DBrJm9Sptl2jEmtVrtNY8lx1VLPv0Vg+WNBQpK0gT0Snmlc1peHAYcduLtjCWx7/sQSA1tHTZMq28iaK2JQh4deRQrUp6GTNllpkzpkvPXr1l3tw57h5hx06dde4gzhZBgAxhZFH8yAIRE8gNJA6vlQ2oGATbC6KPd7x61Ur3DcCTJ0/WSA0RBIsg8CwRMtY1a5H0FONYtmy5Rj+IGHC1bNVKihYpqiHcLFmzydYtm3VNEGlZtHCherZ4plwDBg6SaFGjSLly5aR8hYqamrP2tRBR7NWrp8ou+4QGDhzwVe5+wsSJun4wBsjF1KnTNB0CKYCwWZsFIaboDQwVeGjZ8y8RBEgt0RXmAbKMNwlBYIMqhJ6LtVCpchWNCBJuJ3rHPoR2bdt4SHfY4gqJy5U7j8ydM1smTJggFSpU0LGjK9FPEG/KChPtJNJA+tUzQRg8aKDONwQB2cNIIp+MNWiQIPo65rx9+3ZiHyiQTJk8RcP8xYoX04iLlU7hPvQQHvTHj676HGF19COpIvbBULLZ0hcNGzbSzclBtZS1PwkaNIg6dta88bxnggDWO3fuUoIAocfgt27VSt+1atUq9cjr1Kmt6zNvntya2kU/ErEjarBg4UJdOw4hQkjPXr0kRPAQ7vMNMWGdoZshCESEKlaspO9irwj6H53B+h8/YaKkSZNaxw92DZycpFmzZlpiuWmzZl+ig+E16jVmzFhd29gursKFC2tklWjJzBkz9GfYQvYgoMdMBOGLhAMKXuWA/m5hJTeCMFAmThjvgSCQZmAHcdkyZVQpsokPFtivX98vBOGE1o/n+hZBoIwtO7Bnz5qlJAAmSATBliBgqJ8/cxNmco9W2WLCxGPGjpPixYpqLgwBhdEjFIsWLVIFWaxYUTWIt+/clfbt2upCxytDkeC1wnIhCEWKFpEBAwYqM8XQNWnSRJnrzxAEhJeICMbeTXEu01w6CxNlhYAhjLYEASNB6qJe3bo6LpQtuTdbgkCf+cNF2I0QMvhigFetXiP9+7lFEBYuWiSfXD8pTkQQSOewScptzM4ya/ZsJXxuBOGtFCiQXxUPxgnvAe+ye48eShBIMdAvQo/Xb1zXsJzt1yNEXiAGGDgWKCF8DPD6des1UkMOdfr0GZrL/BFBILfPXBC6xethLwZ5SPrtmSDs3rNX2rZprcqRqBKEDNxsCcL1a9fl3r27GhlAnubOmy8ODiGUIODBMU6UtFcIAvPGpiiIBkYFubJKGltRHMKljJPUTPVq1WTvvn2aEyYM7ZkgYOiPHXVWUsYcz5k7Tz1pcvy2BKFWrVqSOXMmvQ9i2bJlK8FQDBs+QskJxg28u3XvLpkzZdb5tgjCoMGDdTMVaQhkkBAqG1EhCKwrjEDcOHE89A08q1arLiOGD1dPHznE8CJLkBWLILBvwSqBjVPAfgv6s379Bk0ZYGgYR+s2bTX1oR5olqyybesWlRXmiT0HIUIEV0WMXLLm8BLxTqtWrSZdu3ZRo2yLNTvIed/AAV8ThLlz52l6CS+QcRBCZ08O43QjCAdUln9EEHgXRHjJkqUaFS1YqKAHggAeeNzFipeQZUuXKDk84uysEQQMM/oRXGyjMhbA1WvUUG+fdMHo0aN0rRDJwUsnssA8QoyGDhnsThDYg8C6IPU0dMgQxQKiCpkoU6aMNG/RQtdjqlRu6QMrgmXpCPQCIfKECRJ62Pw5c9Ys3adF1I21vXjxYh0L84bnj/EjJcHVunUb1Z3oL6uMs21EjHvmz1+g+4YgLURR8Poh/O3atVWCwP6Ali1beiAIdevWkSlTpqqjs237do2okHJl7iApOJYQHOQWh459JRZB4/04lhAEUtM4CavXrFang3VARIV2PG9StCUIVgQBMkv06eyZsxp9svae8S4wauDUUEkbc0pUcfr06VKoUCFDECzB9ipByJghg6xdt153OUeLGlUn/+27tzYRhB8TBDbFEWZEMaCQCWWTp7QlCCgIQrelS5WWmDFjaD4PJUPd7x07dkiokKE06gCLxGNlwdIPcrQYOwwiJKZb125uu4n37JY3b9/qbmIMHQShSpXKMnHiJPecPkaEEPnPEARKARMCJYd3nvDm6tVqNH5EEFDiGHzyafQNps3423yJujAfeCIoO/LfXHPnztUcMp4AXkzdOrVV4RCyJoeIZzdq1GhVyPXr11OcNqzfoJ5RyRIl3AkCkZxBgwbrAh05YrgqinbtOyhm5PdRaoRSaQPFRgiPjUDg27VrN80LkkJhEaFENRe9bLk0bdpE9wUQOsTQf48grFi+TMO5eD1uexUi6x6Pe3fvSc2aNf8RQWCj67lzZ6V06dKaYhg+YoSGHf8JQcDYLV+xQvcrFC5EnjWYKlZSWyhhMLc+2V2/YYPO2cZNm1RZ4n3yt7XZlrnImy+/TJo4QfEjhMwnpf379ZMJEyZ6IAhRo0XVOQBzyDMph1QpU2pIlE1beO+8nwgSuXbSJxZBwDDgiRJZgIRAruvWqaNtfY8gMHdr1qyV8xfOqwF6+OCBTJo8RatY2hIEdvC/evVaIPV4v0OHDdfcLsTr7Llzmm9++uSp7vkpW7aMErFMmbO4EwT11I8eU7kgn/ve5b2MHz9eoxp416NGjVJFzf4gyCIRjIQJEmhk8HsEAc+fL6LAkXWGUSV68DdBcPvc8FsEIXGSpLJq5Qo1sug75iNTxkwSK3YsJfc8A5ki1QgZiBEjum5e5f6Dhw6priKixb/ZG8Q7PX9FwcbH2bNmS+o0qZXMIlNEzF6+fCVFixWV8+fOqwdN6syKIPAVA9FMSH6rVi0VC0go64O9OaRdILh58ubVfUuQGjZ6EqFBX9nZ+de9N0RyIWpWuXgwpF0ICwSefoA1e2I8EwQMNEQdfUoUArINkbN1EthgyNrAuydkj+yhSzt37vRDgoCDxroi3VepUiXVe02aNtMoxZjRo9VBw7sP6RBSozVgxgbTsGHDKFmGIBB5hogWL1ZMokWPJgEDBNDoMljRD9uvGCyCQHoWUk20ib0lpJWJGhGNYE2jZyEOEPB69evr/hpwJW2D81Wndh1DECyCQGgW7wvjA/sHTIxRi+bNdcIQKELMefPkldWrV+kGEBQfLJSQIHkwlAGbpMgnc6E8Uah58+TR0A6eDx4mHiTtI2R4XggIm6Ksi7TFuHHjdOMTypBwHRtqCEdGiBhRypcr5+bB7tylC4B8En1mQdh7L4QAACAASURBVGHA8Or41hkvmnwV7JXQOMoI48iCp098YbB8xXI16jBrSAUbifB2uHgHeyo+fvgg+fPn9+CF8R+YL+kScIgcKbIqGgw2gseYCN9Zn02Rn2zVqpUqFHJyR5yPSOhQodXYYpxt24cV40E8e/Zc+0ruH48JrwevHbwhJnymxW7h5MlTyNq1ayR27Di6+5Z5Ir/JZjDmDsKFMuUdzs7O6rVbBhrvhhSFQ8iQ6kWgHKxNWMGDBVPDy1kUrVq3kQ7t2+v7LC+GjZlEiSAkcePGkffvXXTXNSkgyEuJ4sXcv3pg0yL7VHgWY0nkKWDAABI7ThwJFTKkzrMV1rciJ6dOn9a5Bk+IC0qucKFCqiAtZYcSIwz+weWDhAkbRsOOjx89Ui+D0G6cuHH1UzXGP378BP0UlM13hB7HjR2rX3wMHzFcQ55cYLx9+w6NOjH/4cKH0z0abGjCoKCMwaVMmdLaXzYSojgJbxIutZSzfj2ybLk8efxYiVugwIFUeaOA8KpZF3hs7EHIkjWLvHv7TvdY4EGxBrnAF1m5c/eOGgZSVhg/ZIhNv2yA8+/fTtNcDiFDSdQokdVo0QciCOx9iZ8ggUTx9AkmbUN8yHnz1REhewwYc4syxVARbaKd+QsWyidXV5VTiB+hXHQFY2b9+A/gXzf7Mn/c07RpMxk8eJD7PhWIxbp16+XCRdZpKPXW+OKDdAQEgogeZJiIIP0nDYkR2rlrt9SrW+ercw409fglXcUYMYzMNX/QKWz2w/CSW2ZDH7qAdBBrtFr16hIjRkzyB5reZO8I0ZcnT58qIbhx84bqEcbB7yC7GCDWIxuCL1y4qKkVPOdIkSMrKfRMEJhrUkOQZhwoLuQdXYiMMn+E4hs1dFL9R7588qSJGrHAQ2ajc4jgwbX0eKqUqdQR4x1Enc6dP6eYRQgfQTf5oQdIV2CkI0WOpLiy7q1Nisjg8OHDdRMmz7AuWQdgwKZZvp6xUmPoCdaks/MRcf30SfUWHr3t54GsDcbBfAUPHkKjT8hRhfLlNdJJqhTCyYXOYeMgOh/8yPczDxhy8MVBgmhw/gtrgTbBlQ3NAfwH0KgOJBkyTeoU3Y3dILIdSvel2Gn6EJlkvaJDIaiMHSehVKlSEjVKFI0y65cTSZNqRODs2XOyZesW3VSNfKNfwODGzZsya+ZMCRAgoAQPEVzXTNKkyRSjP/3y0meOvgkEhJVQOEKB1+r5cxvf1Nc/vS/MBZ8CYmzYFIjnZC6fQwCCgNfO5jlzeQ0BUp/x4zlqau9nzkHwWuse78J4kSKcPWful6+qPO7n+Cdtmmd+HgFSS89fPJc6XzZkEr1kg3vlypX1M01z/XME/BxBsLwnIgB8K/4zh1z8c5jMk99CAI8FL4UQHd7Jr1bI/7VZMATh52ccr5U0g7V7/+db8PoTbue73NUIFtGrnzm50etvMXf+PwRIZXI2BpEqrrt37+jXWuyJ+tmD9P7fu/5rv/eTBIFJsjbh2H7X+1+bPDPePxsB8vdp06bTcz7M5XUErI16Xn/in99p9NA/x86nnmQPBnty+IyUPVvBggbVtBJpZWMfvIeynyUI3hu2edogYBAwCBgEDAIGgR8hYAiCkQ+DgEHAIGAQMAgYBL5CwBAEIxQGAYOAQcAgYBAwCBiCYGTAIGAQMAgYBAwCBoH/j4CJIPx/jMwdBgGDgEHAIGAQ+M8hYAjCf27KzYANAgYBg4BBwCDw/xH4JQSBk7+279ihlbBsj+P8/935s+7gEyhO3PtWCdg/a6RmNAYBg4BBwCDwpyHwSwgCx5hSmY1qimHChP7TMPPyeDiyk+9zOdXNXAYBg4BBwCBgEPBLCHiZIBAVoIYAx+tyTjUn53EO/oMHD7UgE7UQqK7IyVWce24RhMCBA+lznIHOxUlntMUhFk+ePNE2uDiTG0+bo5M515tz1YMECaq1EjgIA2PLoRfvXVy0fC9nlQcPHtz9IAyrHDHvon/UAKCue5gwYSVIkMDqydMvziCnFmKkiBH1uGbavv/ggZZL5d/UXeAcd9qhT5wOyBn5/M19lEXlxDSKgXAmOTUAOMOcAosuLu/1PHRqANDXrVu3alW4jh076L2Mj7PqaZffc14/4wVTCjUxBooKubq6jY+a5ZxXD06cmU6NhTCh3QgXBXoYE89w9jk4mcsgYBAwCBgEDAI+hYCXCAIGbdHixXL1yhUtSBMuXFihDC1lSDdt3KR15jGM1JanKAhG3yIIt27d1HKxVObiokAGpTypyY3xpAgKBhVDyHGZFM6gUiCFWz58/CCNGjaUS5cvazVEjCaGGuNIsZK8efO4pzB4P4WGRo8erYVr3r59I69fv9GCJpxlT4W5rVu2aNlnSAan01GIicIkFPCgktmb12+0UAwGmapxHz581KqJzZo20aI602fMUHKixWOiRdUqilSvO33mjESLGk3JB4VFKAZCIQ8qU1LYp3TpUlo7HUJD8RAK7VAamEJIWbNm1epxtE2hIOoaHHU+Km3atNESrhSJunXrtuIb0iGEFjyBGFClDNLBv+M5xtNCQ+YyCBgEDAIGAYOATyHgJYJw6tRpGTd+vNbrpsQvxgqPfs7cuRI3TlwtmoR3jpHLmiWLVsDyCkGAdOCpU86W0prUNk+cKJGWf4UwUDmuXLmy4vLhgyxfvlwrqGXOlEmOHz8uS5ct0zroRCK46NOBAwdl0qRJMmrUSK08SHlbjH2RwoVl9OgxWsWNinMQno6dOsm8uXPl6tVr0n9Af02HUP8cYkJlPww3Nezx9CElVK88dOiQ1KhRQx7cv6+GPkuWLPLu3VslCJQDpf2NGzdqlTiwcitNu1SGDB6kfYRAEEGAbFCbHpJAmeVNmzZrHXuKixBJoLrh9GnTtPwoBKR48eJaGY8SuE4NnCRAAP86fkpUQyogCYzXXAYBg4BBwCBgEPApBLxEEDgTnlKaGG7LEOH1Tpw4SWrWqqllfAmTQwqSJkminu+gwUPU6H4rgrBt23Zp3ryZRiUooYoBZzNjnz59tMQq3jZpiGnTpuu/7QPZa4lQSoJihIk08O6GDZ20BK5FEPDWlyxZIgMGDNCfHTx4UKgRT5lnIgvJkyWXiJEiij/xp6VfKYuqxGb6DBk9epQSgTNnz8q6teukQIECWmfculq1bq0RDN7/8cNH7R+10ymJi+GnNCkpC0r/Tpw0SUaPGuWBIEBKjp84oTg6hHCQq9euysMHD6Vu3Tpy8eIl2b1nt+TInkMePHwgzkecpVOnTrJ02VItW01U5rN81vLVxYoW0wplCxYuEocQIbRUMKWjHePG9SmZMO0YBAwCBgGDgEFAvEQQqHd+8OAhadGiuXtI/+7dezJt2jStW09agDz80GHDJWWKFJI8eTIZOGiwEgQ2LGKcx48fp/nyHTt2aNicevUQhGBBg2ldcIhHnz59NW2QLl06efHypbafIUMG3VOAsYcgkI64fv2Gpi2om25LEPDwZ8+ZIyNHjFDPn1TGufPnJVfOnJpGKF2qtCROnEj8+bOj2JfuIzh58pQ+M2L4MBWHS5cuaeqjQMECWlPcunr26iXRokWTggUK6o/s7PxpygBs2C9BPXH2ExDdoG8QBPq8cNFiGTpksKYRiGgQKaE/9PXQ4cOa5mB8TZs1139DBGJEj67pGqqUUUe9Tp3amtrhChUqpJKq9+9d5OzZM3Ls2HElTN26dTWFScyCNggYBAwCBgEfQ8BLBAEj37//AMmdO7du2CO9QJRg/foNcu36NcmZI6fcvHVTzpw5K0WLFtGNdFaKgfB3Aycn6dWzh27+W7Z8uTx+/ES6d+vq4wSBkD714J0a1Jdw4cLLlq1bJEaMGFKsWDFZ+mW/A8YZMnL33j0pkD+/UDbaliCwiXLy5CkSOEhgSZc2rW5chKQcPXpUpk6bLuXLlVMjDSECC2qPf48gnD17TiAWPXp0F5f372XHjp0SPERwSZ4smezavVvTGQ2dnHTTY6PGTaR9+3YSOFBgiRgxgm6WPOLsLGvXrpOUKZLrOJ48eaq4k6JgTsKGDackYeXKVTJp0kRDEHxsWZiGDAIGAYOAQcBLBIH0AQby8uUrmr9n932ePLk1n+7sfFQJg51//xLP0VE353EP3nLpUqXUGG/YuFGNGh62lkf9/Fny5cunIXh7e0LkKd3Iw7LlkixZUvWeCdtzlgJtsvsfzz5FihRqOB8+fCRbtm6VfHnz6EY9LvYgkGKYNGmybuR78uSxeviE34ky8LUBHvujh480HRI5SmT15An5796zR713Lvp35coV3Vfw/NlzCRY8mNYV55ndu/fI/Qf3xfUjXypE0z0LbCrk3fwbz55Niny9wF4FvsZYtXq1/jxhgoS6cfLUqVMSMmQoCRkqpKYp2Mdw8sQJWbJ0mY79k+snfQ5MSI2Q8mDspDXChA2jezDAl5TLq1evdYyxYsXUcZrLIGAQMAgYBAwCPoWAlwgCL8NAYtDwnNkvQL4dY4qxwqAFCBBAjRV/YzBJEYR0cNC8Pl81WCQiSODA2hZtQAJIBWBAuY/2Cbfzh3toF+LAPbTBfbRPVILfBQvG+9xC77zT2dlZlixdKp07ddK2eQd/rJrg9P3Fi5faNp48nzbi/dMWnxBal/XJJNEDyAmpCOsdjIN3WW27feL42X0M9JP2rGdog77QV//+7ZQocfE84+D5Ll27SssWLb78zFXJGKmKLl06u4/VGj8ki+v5c7e54BNOPi0FP3MZBAwCBgGDgEHApxDwMkHwqRf+qnYsgsDu/n59+/6q1/h4u5CJevXqSYUKFSRevHjC3g4iEJkzZ9KNkuYyCBgEDAIGAYPAv4HAH0MQiAqwEZDUAHsL/MpF9IFUzb59++XO3TuavmFzJJsxiZaYyyBgEDAIGAQMAv8GAn8MQfg3wDPvNAgYBAwCBgGDwJ+KgCEIf+rMmnEZBAwCBgGDgEHAGwgYguAN8MyjBgGDgEHAIGAQ+FMRMAThT51ZMy6DgEHAIGAQMAh4AwFDELwBnnnUIGAQMAgYBAwCfyoChiD8qTNrxmUQMAgYBAwCBgFvIGAIgjfAM48aBAwCBgGDgEHgT0XAEIQ/dWbNuAwCBgGDgEHAIOANBAxB8AZ45lGDgEHAIGAQMAj8qQgYgvCnzqwZl0HAIGAQMAgYBLyBgCEI3gDPPGoQMAgYBAwCBoE/FQFDEP7UmTXjMggYBAwCBgGDgDcQ8BJB2L17t5ZM9u/frbSyuQwCBgGDgG9H4IOLizx89ECiRInm27v6y/v37OlTsQ9kL0GDupWL/y9f9yiKFznKHwXBhw8fJFiwYJI6dWofHZeXCMKxY8e0ymCgQIF89OWmMYOAQcAg8KsQePXqpZw5c0rSpcv4q17hZ9q9fPmiOIRwkPARIvqZPv+qjjofOSip06T7Vc3/K+2+fv1a3rx5I/Hjx/fR9xuC4KNwmsYMAgYB34KAIQh/z4QhCH9jYQiC11eoIQhex8rcaRAwCPghBAxBMAThW+JqCILXF7EhCF7HytxpEDAI+CEEDEEwBMEQBO8tWEMQvIefedogYBDwpQgYgmAIgiEI3luchiB4Dz/ztEHAIOBLETAEwRAEQxC8tzgNQfAefuZpg4BBwJciYAiCIQiGIHhvcRqC4D38zNMGAYOAL0XAEARDEAxB8N7iNATBe/iZpw0CBgFfioAhCIYgGILgvcXpLYJw/fp1GTFihESJEkWcnJz0JKdPnz7JoEGDhMOVxowZI6FDh9ZTGL16nTlzRqZPny4DBw706iPmPoOAQcAg8BUCPkUQdu7cKSdPnpSSJUtK5MiR3fXZs2fPpFmzZhI+fHjp2bOnBA0aVPswbdo0Wb58uXTr1k1SpUolrq6uMmTIEDl8+LAsXLjwp/ShT02rT52D0KNHD0mSJImUKVPGQ9dWr14ts2bNkrp160rOnDn11N2PHz9KpUqVFJ/hw4erTZg7d648ePBAsmbNqnhGjPj7D27yzmeOb9++lfXr18vEiRMlYMCAKg/FixeX7Nmzy8OHD6V79+5y//59cXBwkJQpU0rlypUlRowYPjWN323HVx6UdO7cOenQoYOECBFCmjdvrsc83r59W5o2bSrHjx8XjmhGAH6GIDx69EgOHjwohQoV+uWgmhcYBAwCfy4CPkUQMPbosoYNG0rs2LHd9Rm6Kn/+/BIzZkzp3bu3JE6cWPgZzg2GEIOZPn16adu2rbx69Up27NghV65c+Sl96FOz41MEAYPHmNDxtteUKVPUWaxVq5bUrFlTQoYMKXv27JF69epJmDBh1Khu375dnj9/rsZzxYoVki1bNiUQv/sIf+8QBAzxnDlzVB6webt27VLy2KhRIz1puE6dOjJgwAAJHDiwbNiwQU6cOCGjR4+WCBEi+NRUfrMdX0sQRo4cqQKfJUsWqVixojJnBIE/CAUEgQUDwyTCUL16dSlRooQuniNHjoiLi4vcuHFDatSooawUsGHjCNDp06cFxnrnzh3JnDmz1K9fX+LFi+cOEPcSrXj58qXemyZNGo1k8C5YG+0jrBxBOWnSJG2nSJEiumBhtwh7165dlREvWLBALl++LA0aNJCxY8fKixcv5NatW3of/bd97y+dadO4QcAg4CMI/Igg4MigyA8dOiThwoWTGTNmqH7o3LmzzJ8/X71cfpYwYUL1FLdt2yZPnz4VnKLcuXNLr169hAgCOgSPmXtatmypegujsGXLFvUm0YvoQYwH+su3EQSiG1u3bpVhw4YpiSlWrJjqYaK/adOmlbJly6pOx9gz5tq1a2tE4Nq1a8L5/+hLdCpRk71792rEmJ85Ojrq31GjRpVNmzapPUCXcuGFo7fBHcMKdr/z+h5BOHXqlKxdu1bnCFuA7SLSwfwx1126dFFyBPkj0k1UaP/+/TJ79mypWrWqkiLmGLzAAbKITOTLl0+qVav2S4foawnCzJkzNYQWKlQoady4sQoR50HDsubNm6cg37x5U8KGDauRAQSvf//+apAvXLigoDMZMFDCUKQtOnXqpAsMQQJkLn4fK1YsNfjWxb9h8OXKlVNhzJs3ryRIkEDZ7V9//aXsFfIAiUHoU6RIoc8j5JAUFgN94ecog4sXLyor7NixoyRKlEjDZYwPlrh48eJfOsGmcYOAQcBnEfgRQcAxwCCifzD80aNHVyejRYsWsm7dOrl3756MHz9ekiZNKsGDB1cnAb2UPHlyNYiTJ0/WaAI6pkKFCqqvhg4dqnrq3bt3ajiaNGmioWc7OzvVIRgJ30YQMCyQHJy7ggULqr6kv+jxjBkzSpUqVVRXY+AhEehPizzt27dPVq1aJX379pWNGzcKbfEz9GamTJk0QkA7ffr00egJjuTnz5/VDmAfihYtqjr7d1/fIwhEvekrfSpdurSOlegHDiP9XbNmjZIB/kASIIbMJ6kECAIpBosgYO/Ao1+/fhohwdH9lZevJQhEAjDcgINRhZHDulgs/I70w4QJE+T8+fN6DyyScByCBXAYZEgBCxUBJJrAQkTgjh49qhMBSYDxly9fXifAutq3b6/Eg4UHU+P39IV3I6REHZhUWCGRBRY7YTBnZ2cZN26cCiheBIseImARBCazVKlSKiiwSsgHDNpcBgGDgN9B4EcEwSIDceLE0eglDgVr3SIId+/eVYKQLFkyJQh4wegqPGPSn/zBqEIQCCtjQNEXRA/Yk4UXid7w7QSBKAB6GgcJo4jjZG9vr1FcCALkAYKAgUc/41xhEInCop/BCEMKnu/fv1c9jYNItBhbgBNGGprnIQfoekgUIXd0dJAgQX67QP2IIGAHIIA5cuTQ6AZEBwLIWNq0aaNpAwjCokWLpHDhwmozIFTcy/g8EwQIElhg337l5asJAkyKcD5Cki5dOhUsjDeCB6McPHiweuBXr15V4w17hyAQdmOTDyzMM0FgAjD6pA3YzDJ16lStKGlLEFiMLFoMP+Ew8ln0gSgFE4bhh9kvWbJEFzGLHUJAKJE+sbmE97J3AqHl57RH/woUKKAE4sCBA3oPCsBcBgGDgN9B4EcEAWOGt7xy5UrdTIhDgrEk+sjPMGToEVIEEAT0FfoI44enDTlAf0AQMKboCXQcuhC9QXrBLxAEjBopWCuKS9QWkkTeHNIEQcCDhjyNGjVKCULcuHFVR+JooTfRyWxABFNSsZCps2fPSuvWrSVAgABKEEjRoF/xxIk447ARkse4/sweNZ+Qvh8RBKLekD+cXGwIRAFnkQ2mjAeCgNOKnSHFQKoF+0CEmrGzT2XZsmU6NiLn2EEIBm38ystXEwTAIWyEsBCeh2HCDiEIAAvLBCgEilAbgP4/goBRJx9IGI+0Af+HeNgSBJgcxIQFCdmIFi2aboKxJQjsIyDFQGSBzUTsPmUSYfaQASIQsERyh/wbBUH/UAqkLwg3suHEfFXxK8XbtG0Q8HkEfkQQMOikAljb6AEii5ZXi2F//PixRgFwOtAF7GFCybNrnbQkeoQcOgSB1CgGtFWrVqr3MKroEb9AEIjo4t2DA94wuXXGhBGEOEB40L0Yf/Q4mxAhEehQSABOHzoffc497FmASJE+Bj9+365dO43kErVlvwPheFLS6GSMKrr7d15eIQikRxjjtwgCJGfz5s0610TGSScx1+w7wBFlvIwJXElfIS/87ldevpIgYHwBgVA+QLCzM0+ePLrQYKBEB0gjsID4PZsBWWwZMmTQkA2bUwjTkNNCIAlVkU7g35ADwvqweQw/O1/ZeMiGDy6ElM8h2RjDxWZHDDwsD28Alg8hgCHDbtm4yHuIcMD+Ya2QF8JnfJ5En9kvwYLAIyD3hAJhomG7hA3NZRAwCPgdBH5EEPBo8XRxKEgzsH8KHUKonY2IpEvxAtmbgPHE+8XYXbp0SaOapCVQyhg9jCa6BSOJ40FEEwKBruLf6BoML44K9/9uj5kZ+95XDIwZRw4diR7MlSuX/iE6i4HH6BNJQH+jn3G+wIT0ArqVFAIb94jUQjYwrER/rU3geNi0T1SC6DE2w7rAh+fR7b/z+h5BoK84sMwvX6Qwh9gs7BURFuwNkROiydgo5hE7gc1j3GxkJA2DDUN2mHtSNr/jU05fSRB+56R6fhe5LlgbuTB2ymLsyR8tXbpUc2j/9GIhQE5IazDx5jIIGAT8JgI+9Zmj3xy9x1771GeOfwIW3vnM0beO3xAETzND/pCUBptcYPj8nwgDjNQ7F+0QToQRwpzNZRAwCPhNBAxB+HveDEH4GwtDELy+nr11kqLXX/Nr7uSsAjaCsLmIb3PJD7LpxTsXoTHaJGdEnsxcBgGDgN9EwBAEQxC+JbmGIHh9PftpguD1YZo7DQIGgf8aAoYgGIJgCIL3Vr0hCN7DzzxtEDAI+FIEDEEwBMEQBO8tTkMQvIefedogYBDwpQgYgmAIgiEI3luchiB4Dz/ztEHAIOBLETAEwRAEQxC8tzgNQfAefuZpg4BBwJciYAiCIQiGIHhvcRqC4D38zNMGAYOAL0XAEARDEAxB8N7i9BJB4IhkPiP83Udiem9o5mmDgEHgv4zA69ev5Py5M5I6Tbr/Mgw69mtXL0vwEA4SLlz4/zwWx485S4qUqf8oHDgWm5N/KU/uk5eXCALHGUMOfnfdbp8cqGnLIGAQ+G8hwPkoT58+lggRIv23Bv6N0b54/lwC2tv/K9UTfRv4jx4+kHDhI/i2bnmrPxyJjX2mDpJPXl4iCFSu4rzyf6M0p08O1rRlEDAIGAQMAgaBPw0BTgCmBgTFDX3yMgTBJ9E0bRkEDAIGAYOAQeA3I2AIwm8G3LzOIGAQMAgYBAwCfgEBQxD8wiyZPhoEDAIGAYOAQeA3I2AIwm8G3LzOIGAQMAgYBAwCfgEBQxD8wiyZPhoEDAIGAYOAQeA3I2AIwm8G3LzOIGAQMAgYBAwCfgEBQxD8wiyZPhoEDAIGAYOAQeA3I2AIwm8G3LzOIGAQMAgYBAwCfgEBQxD8wiyZPhoEDAIGAYOAQeA3I2AIwm8G3LzOIGAQMAgYBAwCfgEBQxD8wiyZPhoEDAIGAYOAQeA3I+DrCcKrV6/k+fPn4urqKvb29hIuXDi5du2axI0bV/z58+cBrk+fPsnnz5/Fzs7uq9/Z3sh9L1680CpVkSL9moIr9IN3AHC0aNF+87Sa1xkEDAJ/AgLokbdv36ouCRYsmAQPHlxev36teiVEiBD6M0sPcq+Li4vqy8CBA+vvPetIv4wJY2bsYMC4Hzx4IBQT4qKgUMiQISVo0KD6f6oQPnv2TD5+/Ki1frAbfhELbBXzyVwGCBBAx8b/sV2hQoXSYoeMEWywkWDgk8UPfT1B2L17txw9elQnnknOmTOntGrVSsaNG+cOmCX0FJVAgDDI/v37/+5aQKh27dqlRKNOnTq/ZM0wWTt37pQDBw5I+/btf8k7TKMGAYPAn4sABv/hw4dy4sQJefr0qSRNmlRixIih/79165ZgPIoUKaLGkgtlfuTIEX2GnyVLlkx1oV80jJ5nlTEdP35cjT64FC5cWLZt2yZ3794VqmtyZcuWTZIkSaL/Rr+fOXNGx06hoVy5cv3QJvhGKYLsXbp0SbCBpUuXlrBhw8qTJ0903JCC6NGjy19//aWycOzYMSUIiRMnlnjx4qkz7ROXrycIS5cu1XFmzZpVJ9jBwUGcnJyUIADW9evXVWAiR44s58+fVyHKnz+/LqQbN24o8+a5NGnSKLvGYMOwLly4oAvMIgiATHuADMkIHTq03s8fnoXF0z7kIkyYMBIrViz99+XLl5XNQWBSpEihwnrw4EF9J/ffv3/fEASfkFTThkHgP4YAXvC+ffvU4GfPnl09RvQQRhEdNGLECNVfjo6OigwGcdq0aVK3bl3Vc3jaEAif9Cj/rSnYunWr3Lt3T+1At27dpHv37jo+9O2dO3dkz549ShqsqoOjR49WHZ0qVSrVzWDn14gStgsnc/369dKhQweJGjWqzJgxQ+czderUK+SjYQAAIABJREFUsmXLFsUDRxe7RTT84sWLkjt3br3XJy5fTxAWLVqkCyJ58uTKoOLHjy+NGzdWgoBgUDKayAEkgfAKC6pYsWLKoDDQ/H3lyhUpW7asGnMWEawaZkZ7FkFgEm7evKnAHjp0SNlZzJgx5fDhw1KuXDl5/PixslKIB0SCCbp9+7YyWsI/tFuvXj0lJZs2bZIECRLo+2B6JoLgE6Jq2jAI/LcQQPGvWLFCjR4pA/6OEyeOOh/ou549e0qtWrVUV3HhHE2fPl169eqlxgMyUbRoUfcIg19GD8O3ceNGNfboXWwARh/9yrjR07Vr13aPKk+ZMkX/HT58eCVTadOm9XMRBMaGEzts2DCpVq2aOsH8PWTIEJ3TvXv3ytWrV3V82Edkg3FnyZJFIwk+cfl6grBw4UKNEiRKlEgiRIigYbOmTZsqQdi/f78ySJglQOXIkUPDLSVKlJCVK1eqwYcMIFz8btWqVdKkSRMVLIw4zNyWILB3IVOmTLooI0aMqEwMgkJqg70QTArtLFmyRFnc2bNnJV++fBphYGFCXk6ePKnkIWXKlLpIEV5DEHxCVE0bBoH/FgLokpkzZ0revHk1WonOwdBhEDZs2KDOSI0aNdzDyehBHB0cJSKkUaJEkVKlSv0RBOHUqVOyefNm970HREmwBzhuixcvVqNopReQEpwzHEhI0po1a6Rr167qEPrFa9CgQVKlShUlCOXLl5dJkybpnGP/SL9j40g1EDGZOHHiV1h4Z8y+niAsW7ZMwWDvAQacf9evX19GjhypexEaNGigBIC8XIECBZQUEEFYt26dEgeIBZtUYFc8g5dvLTAiAbYEgZAVQFusncXIv/k5C5QQFekLSAubQ/7X3llAW1V94X5Kd3d3N0iXNCgCUopgAWIgIH8RAwxEUERCRClRQARBOkUBaeku6e4cdPnGb7637jsgcePcy9mHuca4495zztprr/WtOef3zbn2AZwQ50UQDB48WIUCggD1xjgYNPMygRARE7VrDYFHEwGSHs6ba9eurdkwsYUkhMSE8jMxEdJzD0Rz/AphkiRR7YRAObsOhiMGYjdVWYQAnID4IVlDCEyePFnat2+v3MBxL3HancHzN6Tap08fv5Xdo9oafQXChx9+KC1atFCxQEUFbqPKAB48e0BCy7MY2Ik/WsALhDFjxmjJn9I/WT1nap06dZKBAwfK22+/rWdMPCfAGUydOnW0MoBj8C0HSjAoSDL/Ro0aqTFNnz5dweUJWMYMjUCggsAzCTNnztQSF87K2Q/OyBEHDsoxB5UNjkNGjRqlRxEIFEqDnTt39sde2RiGgCHwCCEA2VE6J/5RKeUhRRoxkRhHXCI5gTQ//fRT6dq1q6xZs0a2bdumxEE19G7f9vIihFRjOTImnnLE0KxZMyVFlzGTnMEB7hgCgUByRpmeZ8o4knDfcPDa+n0FAnuLQCJpZY3wGokqR+usH2GAcKKK5I8W8AIB4iXT59yNrB2RQJWA8zh+Q858BlgcHdCX9yB0nvxFIFB5wJholOWcosaJcDQazxIwDmKC67iX+5v+jM+RhPvaDOOzIdwP50U0IDj4nHm5c0Kuc/f2x4bZGIaAIfBoIEAcg9yIgWSJLubw2n2VGyKgIsozVTysSBzjGmIX/e/3bS4voUgcdw+RE3d57oLqAGIBTiBeu0TNYQO5gRtk6tWvObJHHJUwf7iEtcMvNMdfPMzqeAhboJIEBv5oAS8Q/LFIG8MQMAQMAUPAEDAEwoaACYSw4WW9DQFDwBAwBAyBRwIBEwiPxDbbIg0BQ8AQMAQMgbAhYAIhbHhZb0PAEDAEDAFD4JFAwATCI7HNtkhDwBAwBAwBQyBsCJhACBte1tsQMAQMAUPAEHgkEDCB8Ehssy3SEDAEDAFDwBAIGwImEMKGl/U2BAwBQ8AQMAQeCQRMIDwS22yLNAQMAUPAEDAEwoaACYSw4WW9DQFDwBAwBAyBRwIBEwiPxDbbIg0BQ8AQMAQMgbAhYAIhbHhZb0PAEDAEDAFD4JFAwATCI7HNtkhDwBAwBAwBQyBsCJhACBte1tsQMAQMAUPAEHgkEDCB8Ehssy3SEDAEDAFDwBAIGwImEMKGl/U2BAwBQ8AQMAQeCQRMIDwS22yLNAQMAUPAEDAEwoZAwAuEy5cvy2OPPSZx4sS568r+/fdfuXHjhly7dk3ixo0rvI4ePfpd+x4+fFhSpEghsWLF0s9v3bolZ86c0b+TJ08eNuQi2HvHjh2SLVu2e841gsPb5YaAIeBxBIhlV69elfPnz0uMGDEkYcKEEjNmTLl06ZIQuBMkSCDx4sXT+OgacfDcuXMSO3Zs/TxatGgeR+H/Th8sWDN8kDhxYl0fjdh/9uxZXWfSpElvW+/169cVK3DzKg7s55UrVyR+/Phy+vRptQcaHMd6HS+CA/jcvHlTEiVKpHbiaxfhNYKAFwirVq1SYyhYsOBd1wjJnzx5UiD/9OnTK5gZM2a8a99evXrJ888/r/1ogD958mQ1vqZNm4YXw3Bd16xZMxk8eLAarzVDwBAwBO5EgFhGIrFz504lhkKFCkmmTJlk9erVcuTIESWNqlWrqkigQZ6bNm2SvXv3arJEf2KhP4jiYe/OiRMndG3EehK8OnXqaNxeuXKlHD9+XEVDuXLlQoTDhQsX5J9//lH8nnzySRVLXmusb8OGDbJt2zapVauWLFq0SPcdEUBiC2eRZNIPGwEf/mbPCxQooDYQ0RbwAgECxxFYMMoYNZ09e3bZs2ePqiSUIZu/ceNGfb19+3Z5+umnVV0dPXpUr8F4cufOLV999ZU8/vjjOh7gMc6MGTMU1Nq1a+uYFy9elFSpUknWrFlVpbEZOBz35W8aDkk/hEbq1Kll//79aqSouCxZskiaNGnk2LFjsnv3blX+6dKl001jHPoxzy+++EJ++OEHEwgRtWC73hAIUgQIzgcOHNB4M3PmTI1jCATeK1OmjCxcuFAJokKFCooAhPjLL79Io0aNVEQQ5+rVq6fxxusNoiehS5IkibzxxhsybNgwrRxMmjRJGjdurBVg1uuqx8TktWvXKg5vv/228oHX2sGDB2XBggXKbawBLqEqgl0MHz5cOnTooPwDL02YMEGXlytXLrULMEmbNm2El+wZgcDGr1+/XskXh+jSpYsKAQwGx5k9e7bkzJlTjaJJkybaD4KGqLnugw8+kL59++oRA9dgXIgODIkqBAaGOkM47Nq1S9566y01OJT7b7/9pgKBPogInJRN4b7FihXTz9koxArjvfrqq/oe5R+Mmn4lSpSQefPmqYhgDhg4zmwVhAjbsA1gCAQtAmTOkBw/RYsW1WSGDBqBQKyZMmWKvP/++7r+devWyciRI6V3796yZMkSjVmVKlXyZPZ8rw2lqtK2bVtN9saNG6dYIJKI24ULFw6pIFBNgVAHDhwoL774oucEAgno/PnzlTv+/vtveeGFF5RjaMuXL1fR0LJlS60OwV+LFy/WCgJ4JEuWTCtLXBvR5imBgKKqW7eubjYiYOjQoWr8OAZg4jRUDRo2bKgkz7ED4FHKh5AHDBigpSlUFuUaACW7h8QhfsCl0oBq69atm5I3AgEnRI0hQLiOKgEkv2LFCr0eZ3zttdf07Kd169by6aefSr9+/bRKQMVg6dKlqmwxWubIWM8995w6swmEiJqwXW8IBC8ClNRJcIh9VCwhQ8rOCAUSGBKizp07KwC8P3r0aI07HM2SBJUuXTpoYgxxmoovSRYxvlOnTlKqVCklREruefLk+c9RdP/+/ZVcvVRBgLM4OkEcckxEsglfkPSy75988om0atVKE1UaVQU4aPPmzcplcBJHEo+cQMAwOGfCMcjShwwZopm8Ewg4AwKhfv36WoLhqIDSfvfu3dVxEAjVqlWT/PnzqwigJIcqA2AEAoZWpEgRVZ6odUpzCITp06erY+KgbFzmzJlVDED8jE9lAFXLhrzyyivSo0cP+eabb/S+zAcFSDUBh0UgsIFs+KhRo4LGeYM3RNvKDIGHgwBkQCNLJMaR8JQsWVITDSqjCIIcOXJI+fLltVqwb98+TTp69uwps2bN0uexqLL64yz64SDw/+8K8bEmMKlSpYrGzUGDBmlllkowFRZwoboMXu4hRi8KBNZBUuo4Ca5q0aKFchciYM6cOfLOO+8oOO6hVCoI8ApJLNwHv9zrWbyw7KWnKgiIgbJly6pAIGPHQHwFAqpp7ty5ki9fPn2wA/AQAKirPn36aLkJYkehITYqV64sW7ZsUaOD/NesWaPGBdBPPfWUGtmDBELx4sX1zIfxmAvHDGwmxsyRBfdC6SFsfv/9d60ooGbZZKoaXnx4JiwGZn0NAUMgfAiQXHB06kiA5AUCJCFBICAAiDXErM8++0w6duyocYVEhM/IromX9/pWV/hm9XCuGjt2rEydOlWfDSOGE595NmPixIla+UUEQaDEff7maIXmRYEAl7D3p06dCjni5uF6HtTnWQSSUYQA32rguIEjc/7mQUX4BM5p0KCBVrkj2gJeIAASBo4TQOQoR15zhMBDhrzHeQ0PI1IBoL97KIevuLgHDcn6Ad19dYg+lGy4jobooKSDM5LtcwzAte6rkLyHIfJ0LMKBzwCP+fCe+4oJ5M+GOWARDFQWeJ9yIe9zLcKD+QeD80bUCO16Q8AQ+C8CkDwxixhEI74RS3iPzyBIqqQkJjycTYmdSgJk4c6i7/wapFdx5sFM1ubiJfEZMuR9CBVRQDLo+MKRI1UXMKIq7MXG3rLfKVOm1D3dunWrHpGDA1zFXsNN8BrC0HEZtuKPNQe8QAjNpvqW4u72tyvT8dt97t67V3/fa0IzBzf2/b5S5HtvN2YwfAUptPhYP0PAEAgbAnfGDJco+caPB8W8sN0xMHvfK3beL577xnsvx9k799et5V5rDw933WvXg0IgBKZJ26wMAUPAEDAEDAHvImACwbt7ZzM3BAwBQ8AQMAQiDQETCJEGrQ1sCBgChoAhYAh4FwETCN7dO5u5IWAIGAKGgCEQaQiYQIg0aG1gQ8AQMAQMAUPAuwiYQPDu3tnMDQFDwBAwBAyBSEPABEKkQWsDGwKGgCFgCBgC3kXABIJ3985mbggYAoaAIWAIRBoCJhAiDVob2BAwBAwBQ8AQ8C4CJhC8u3c2c0PAEDAEDAFDINIQMIEQadDawIaAIWAIGAKGgHcRMIHg3b2zmRsChoAhYAgYApGGgAmESIPWBjYEDAFDwBAwBLyLgAkE7+6dzdwQMAQMAUPAEIg0BEwgRBq0NrAhYAgYAoaAIeBdBEwgeHfvbOaGgCFgCBgChkCkIRDwAuHy5cvy2GOPSZw4cf4Dwr///isXLlwQFhErViyJHj26JE2a9D/9bt26JfTl8/u1mzdvypEjRyRVqlQ6XmjatWvX5Pjx45ImTRq5fv26HDt2TBImTCjJkycPzeU6L/fzoPmFasD/1+nGjRty5coViR8/vuLnrwZGR48elSRJkgh/J0iQQKJFi3bf4d0+xY0bN6Tvg67x13xtHEMgGBDA14h1xJhEiRJJzJgxQ/wa/yIGEov4LLSxy2u4sM5Tp05pjCd+gAmxlxY7duyQ93lN3/PnzytexCpiqz/jYFRgRwxnz1mnW8O5c+d0n3mNDbjm+rJu+Mdf6w14gbBq1Srd/IIFC/5nT9j8qVOnCiICAQFIzz777H/6HTp0SJ0mZcqU993Xixcvyqeffipt27aVTJkyhcoGEBT9+/eXTp06yebNm2XZsmVSokQJqVq1aqiuZ0MZgzWGVlSEZuDt27ercRUpUuSBwig047k+ON3XX38t9erVkzNnzkjZsmUF4r9fY42LFy+WfPnyhQS4ePHiheW21tcQeKQROHz4sGzYsEGFQNq0aaV48eIhfnf69GlZuHChXL16VbJmzao+H2wigdi+a9cuGTNmjHTs2FFJ8OTJkzJkyBBJkSKFxmtirlv37t27NR6DScaMGTUm+zMBi2xjZN47d+7UNceIEUMqVqyo8XzJkiUaQzNnziylSpVSoUQCTL+NGzfqtPLkySM5cuTwiw0EvECYPHmyZsEIhBMnTqgyBLycOXMKhN6tWzf53//+JzgJDvTSSy8JggClCbA4zNixY1VZA2jq1KkVSIwFQgboAwcOaFbM2KNHj5Z33303RCDwGVUBDC9DhgzaZ9++fbpJGCWbM2DAAHnzzTelb9++Ur16dSXNxIkT62YxR8ZA+SVLlkzSp08ve/bsUVHDHCDNH374QSsQGDFCYe/evbrxjI+o2bFjh6ph7kVgOHv2rOAA9MVxwIdqAWtkfJTlwIEDpU6dOiqcwI37M3fuB7FzHXNkDNbOPMGUMWbMmKEGRh+InL/BlHWgZidOnCgtWrSQNWvWSJMmTXQd69atU7xxXMZhTH7AjXXMmjVLcfnzzz8Vc7Ak6OHUzI05sldecuLIDhI2viHgENi2bVuIj+Pbb731lvoRWTExEr/Mnz+/+uTjjz+uPhhM7dKlSzJ79mzp16+fTJgwQUUBmKxevVqqVaumcYas2lUmBw0apMIgd+7cGp9J/PjcKw2OIjkuXLiw7jNzZx3E4rx588rPP/8sb7zxhvIDJD5z5kwVjOnSpVMbIIGD6yLaPCMQIA5Ay5YtmypHSLFYsWLy8ccfS4cOHbTsgmJs3ry5Gg5kxuvGjRvLqFGjlJwhKAztn3/+UeJkTEQDGwEQkBsE9tFHH4UIhMGDB2sZnY3Inj277N+/X6+HWNkQNuuXX36RV199Vbp37y5VqlRR0sOAacyZqgLXUymoUKGCTJkyRR2YUtkTTzyhIgdyxBggS4gTAcJ7GMRff/2l96KcVqZMGRUK48ePl8qVK+tamQvOgEhifMZl3m3atFFDypUrl4qMpUuXSufOnVWFIkgIKAgAlCqiB4PiegLM999/r+NB8mC6YMECvT+48/frr7+ulZOvvvpK54fgwUkRGiVLllRFixDBYFnXF198oaKCtYMjRg9uGD37xBjt2rVTkWHNEDAE7o4APjh8+HD1JXwLgYCvE8fwq+XLl2ssJDkIpkbMI2F54YUX5Ntvv9XkjqQEgUACQsyjcuLK7t99950mUySWr732mvIE+HiljRs3TpNcYjSNtVDZZq/BgjgKPxBridPz58/X5JBYT1wmUebziDZPCQQyZ9QigPTp00dJ57PPPpOePXuqaoLo69evr+QEwU6bNk1at26tToOhFChQQMkYkYEhQWaU66hIIB4gOMZq3759iEBgDBwOwoeE//jjDy31cB2VBRyTYw6OGCBV7kemDgnzLANCBWKmssAca9asqQIDwieLhvAxBkiU93777Tclb+aEYGFOHBew2aybPlQBKNkjAObOnauCqWHDhjJy5EhdJ/OFaBkbAkdIIYyYS926dbUcyW+cjKoLRA62zIv5I3LWr1+vgubXX3/VYLNp0yYVJGQqqPhGjRrp7969e6s4Yg18tmjRIhUVYEUwy5Ili863S5cu0rJlSx2H8RFMYMt6WCNYNm3aNKL2bNcbAkGLAH6KkEbI49PuuSziw4oVKzQJws9JaGrXrh2UODz33HOaVBC7qDoSv6iu8lO+fHlNqGgQJjEF4YCgIFZ5SSCQPLHfCAREEPvZq1cv+fHHHzW+//7771pV4OgBrmP/qTzDOVRrqTA9cgIBAoLIAa5Hjx5KTncKBAyEDBxgUdpkumvXrtVzGUiY6+hDBks5HZFA+bx06dIqGhAdVCTcMwh8ThWADBs1hXpjQ1CrEDgZ+LBhw24TCBAeWTElfAiRDW7QoIESIZUDNhgRQyaOup0zZ46SKONNmjRJyRWRAIkyNzaf++H4CBOEAuNCqAgF8MCAMB4UJOTO/bgX4yEWuI4xOYoADyorXIcx4WwIEq6jbMVYK1euVKJHsCBquB/VBcTPnQKBzH/EiBEqEBAf4IM4oTJB9QSVi4BAIGzdulUdmflQjaHqwp5SEiPAWTMEDIH/IoCv/v3331oxIFYRW4hHVPRoiAQEPaKcbJM4EIzNVyCwPvAgHhIHiW+FChXS94hTHMNS2eRIhoTSS0cMxEv2tkaNGpr4wV+Ihk8++UTf51iaSjXJLscqxG84CtFErCa+g0dEm6cqCKERCJw5QaiobIAiy8a5pk+fruV8yvFk3ZAiipKMG6I+ePCgCgYIjU1wAgHy5jOIFeKGxBmfvmwaZR02y1UQyKZRcTTEBEKBYwvEAe/jvMyL8hEZe9euXZWwyQwgYAya0hnKl2cSGB+SR1SQMUDWzgjuJhDoQ1aOYYEB1Q3IHmNhvqwBIYABobp55oKsA6NDEFDGulMgUNZDkTNft34UqqsgIKBYE2vEMWvVqqXGiqKlakHVh0oEAgFMOEsEB6ovVF3Y1/fffz+itmzXGwJBiwB+ii8j+iE6nv1BlONTxDLIA98jqcD3iXPB2HwFAlVa4isJCfGLSiexk/hHAkJcRTwQ84hJXnq+yR0JwwdUiJs1a6bxmTWTKLJmqrhUUIjtxH3WS0xHJBUtWvSu3/wLq00EvEAAHPeVDRwAYuYsCuKhhMJvytju646AB/m6rw5yTsffZKuQLtfzNyoTsuPowJXYqSAgBBjXORiqnE0iCyfDZSwIGqLjeu6Haue4gL5slu8TxCg7+kPCbCJjUM6H8GnciyoFVQ8cnfswHvOjL5kCpTKup2H43JvXzB2DAA/6ugctqWqwTjChYgLBY1A4D8HDfaPDfWXRrY/xESSQPQbGHMGfNYGRe/CT91kv1Q3m7x7cRMmyRoQJjsm62DvmydwYh9eIB9blKiYYND/WDAFD4O4IEOfwPxeXSGCIY8Q+/BmfwrfwK3689pW+0O47z1yR2BEniU08s0VDIJCAEWvBgThEzCJWwQGIBi9hQkxnLcRQ1uqeN3EPsLNeYj5xlrUSe1kvsRgc/LXegBcIoTUc6/dfBBAIVDaoHCAqCC48Y+D7/dmHhRuOzdkghmwPJz6sXbD7GgKGgCFwbwRMIASxdaAmUaBOObsMPxCUtKuCMCf7NxGC2AhtaYaAIeBZBEwgeHbrbOKGgCFgCBgChkDkIWACIfKwtZENAUPAEDAEDAHPImACwbNbZxM3BAwBQ8AQMAQiDwETCJGHrY1sCBgChoAhYAh4FgETCJ7dOpu4IWAIGAKGgCEQeQiYQIg8bG1kQ8AQMAQMAUPAswiYQPDs1tnEDQFDwBAwBAyByEPABELkYWsjGwKGgCFgCBgCnkXABIJnt84mbggYAoaAIWAIRB4CJhAiD1sb2RAwBAwBQ8AQ8CwCJhA8u3U2cUPAEDAEDAFDIPIQMIEQedjayIaAIWAIGAKGgGcRMIHg2a2ziRsChoAhYAgYApGHgAmEyMPWRjYEDAFDwBAwBDyLgAkEz26dTdwQMAQMAUPAEIg8BAJeIFy6dEmYJC1evHgSP358iRYtWuQhEoaRT506pfOJEydOGK66f9dbt27JuXPntFPSpEn1940bN+TYsWO67jRp0shjjz0W5vsxxsmTJ/V6a4aAIeAtBP7991+5ePGiXLt2TRIkSCAxY8YMiQPEjOPHjwt9YseOLUmSJAmYGOlPlG/evKlcAAYpUqTQoc+fPy+sH0xixYoVcrsrV67oZ1xDfAaT8MRNf84/LGNduHBB+GFPacyfPXfrTZQo0W3rZZ2uP1hEjx7dL+sNeIGwZMkSWbNmjSRMmFCSJUsmOXLkkFy5ckmMGDHCgnek9B0+fLiULl1a8uXL57fxCQJTp07V9TVu3FjHPXTokIwaNUrJ/YUXXgiX858+fVq+//57+fDDD/02VxvIEDAEogaBAwcOyPr16wXiy5gxoxQqVEiJD9K7fPmy9OvXTxMKPqtWrZoKhWBqEODWrVtlz549SpJNmjQRYtrKlStVOGXKlElKlCihJEqDNzZu3KgEmzVrVqlevbqSplcanLd69WoVOAcPHlQugAOxgatXr0qqVKmkYsWKyhMIpF27dul6aXnz5pXs2bPfJiDCu+6AFwgTJ07UtZUpU0Y2bdokCxculHbt2gkKCrDIqhMnTqyAnDhxQvbt26fOkSFDBgUWMAEWYQGAgBk3blzJkyePnD17Vvbv36+bgGNRoeA1ToizYVj//POPGiTOyBioV/rw+/fff5e6detKwYIFdY68N3/+fL03GTvzYlwI/ujRo2q82bJl07G2bNmifVC9ODtVA97D4VesWCHp0qVTo7h+/brMmDFDjhw5okaePn16WbdunRoG1YucOXNq9nD48GFdF44CNqxh27ZtujbWlTp1ahUI77//vlYjWANjZM6cWedJX67BiYoWLapjMmfmw7zpxzjWDAFDIOoR+PXXXzWWEQd//PFHadmypcYS/JPY8dtvv0mdOnWCtoKAMJg+fbpUqFBBY2Py5Mk1NrvM+c8//5Q2bdpIypQpdXMGDhyosZBYRtwinnupggAxu4rR0KFD5fnnn9f9J7bDR99++630799f10bfmTNnavxPmzatrF27VurXr68iIqIt4AXC5MmTlQghR1rPnj2ldu3aSu6QGuSPgzz55JMqACA+DAMVNWDAAHWi/Pnzq1EBIgTLtYwH8QEmogKSh6whaTYBcYCIYBOoWAAU7yE+IHDugRh4+eWXVbnS3Dw++ugjLedzPILTLlu2TFU+AqZy5cq60du3bw8RCu3bt9cqCQKITWUOhQsXVoEAaf/yyy8qAGrWrKmqee/evbpuxixevLiOtWHDBnUeHAIxsGPHDpkwYYIKJ5ypSJEiKhBef/11Wbp0qY7DfOnPWGCHYMDpmA+4MG9wQVBkyZJFqlatGlF7s+sNAUMgHAiMHz9e40WVKlXUP/FjfJcEieRh2rRpGusQ+/i6y6TDcauAvIRqLc0lacQ6YjEVAmLdrFmzpEWLFlplpg0bNkzxouqKOAATL1UQ3CaQDBKbn3rqKV0HMXnnzp3KWZ07d9Z9JpbDRXBb7ty5lbNeeukljdkRbZ5m2NH2AAAgAElEQVQTCCgnSBGHIfPmvAXC5G8cpVKlSgoM5Ey23KpVKylQoICMGDFCM3n+prIA6UPyvIfQQHmR+SMwMCTuAYF269ZNDY9sGrWKAZLVN2vWTPr27asOi/E5gYDSQ+mieMn8GYfN4xiC93DqRYsW6b0h7sWLF8uLL74oKOBGjRqpIqRqwrrcEQNVEyofZcuWlU6dOkn37t1VzCxYsEBFBaoZsdC6desQlcw6/vrrLw0Y3Jt7IRCeeeYZFQ6854gfB3NVBsparBdBwprpP3v2bBUMXbp0iai92fWGgCEQDgQgBvwUwiMGdu3aVWMLAoGMcvny5XoGTUJBjCG5Cab22WefaZxDIJAQEQuJu8Ro4hPkydGKEwEkOsR2eOCPP/4QkjYnHryCCxXmH374QYoVK6Z7SgIHFxC3ic3PPvusYkLlmqMWeJDkkET4rbfe0oQ2os1TAoHJQtio5++++04NBDFAaQXD4MgBZYmSxjCoNjRv3lxV1ciRI5X8yeBRXfwgDDgCgGQxnlq1ain4nPfhcPXq1ZOPP/5YOnTooOPTh3s4gfD1119rVs3mOYEASY8bN04VHqqWOULkrtTFfH/++WcVCAgSHByjp0QIGUPUkyZNuqdA+OCDDzQ4oJ4ZF2fBKDASiN01BMXu3btVDCEUMJhBgwZJw4YNdXzmgwhBdeJA4IFBYYSIKCoS4IURYnCoWHt+IaLuZtcbAuFDgKojBIAY+Omnn7SKgN/jw8QQyufEPAQ+WTXn08HUhgwZotXQ8uXLawUUHBAEU6ZMURwQDPAAONHcA4vg0rRpU+nTp4/GOi+1zZs3K/HXqFFDK+DEdPYaIcgzJySU8AnvIQzhHCrXxGqe0fDHA+kBLxDGjBmjZ+6QPiBgDE8//bQA3pw5c1RBkf3zsCClf8rzkD6qiwf7nEAAPM7uABq1SQZNf8YEcM7yIUhUOqCQQeOEGBZlf8rwkCqGSQWAp2i5ngoFSv5eAgHSnzdvnlY3OLrgaIMjDioGGDSCgGoED9Vg+KwHYmf+d6sgcBRBNkFgwGAIBJD5nQIB9Ux1AofBYN577z0VCG3btlXBQJmK6gKCCgPjeQqciflQnqIPc8QpOQtjjTihNUPAEIh6BKg+UsXjm1ME/ieeeEKPUPFVkppVq1ZpDMB/SXT8QQ5Rv8p735H1kxCxRmIzD2vzMDexmNhEXC9XrpyKKI4WSKDgCJI5MOO5NY6qvdKI7SSSiBpEEetBDLEWKtmIwQYNGuiDm+w1a4YnqahwLAxX+ePbdQEvEDB+VJH71gJiALKm/MKTm47UeJ/F8HAd6hEC5zoEBU7jMmrABWw+RxhA+FQHIEvuAXnTxz3wAdFCkGTYlOnpw7ME3B/jowrAfGi8R0bPMw8ID86G2DzmwcZyLYbM/DBk5sS9HQlTueA+vM/XWtxDJsyJhsBgbggISJ11MB734RrfoIABgZ27B4aGYyGeGI/PuLfLQhBQOB9zZD6IC/q480zGDrYno70SLGyehgCxDT/HR/FFEgSSIRInjheJMTTiFr4eKF8F99fOEceIX6yVGEhCRzLHa+IpsYl4SawmrrH+M2fOaDWF+Bzer4f7a/5hHYd5s172mbgPz1HRdRUSxA58hE0gBFgvf9OI6diBPx7KDHiBEFZgrX/EEcA4qWYggDiSsWYIGAKGgCHw6CFgAuHR2/MHrhiBQKaCAvX9x0ceeKF1MAQMAUPAEAgaBEwgBM1W+m8h7l/v8keJyn+zspEMAUPAEDAEohIBEwhRibbdyxAwBAwBQ8AQ8AgCJhA8slE2TUPAEDAEDAFDICoRMIEQlWjbvQwBQ8AQMAQMAY8gYALBIxtl0zQEDAFDwBAwBKISARMIUYm23csQMAQMAUPAEPAIAiYQPLJRNk1DwBAwBAwBQyAqETCBEJVo270MAUPAEDAEDAGPIGACwSMbZdM0BAwBQ8AQMASiEgETCFGJtt3LEDAEDAFDwBDwCAImEDyyUTZNQ8AQMAQMAUMgKhEwgRCVaNu9DAFDwBAwBAwBjyBgAsEjG2XTNAQMAUPAEDAEohIBEwhRibbdyxAwBAwBQ8AQ8AgCJhA8slE2TUPAEDAEDAFDICoRCHiBcPnyZbl586bEjRtXokePrtgwaVrChAnDjRX/pbH7ceP6Dnbt2jU5duyYpEuXTk6ePCmpU6e+772uX78uMWLE0D4XL16UBAkShHtudqEhYAgYAr4IEAMvXbokxBliS8yYMcX9d+zEMWIOMYuYyGfB1lj/2bNn5caNG7q0VKlSya1bt5QL+B0/fnyJHTv2f5Z99epVvSZevHgheHkBG7ff7Klbm9tvbABeTJQoUchS6I8N8Bv7gItc/4isN+AFwpIlS2TPnj1SpUoVJWuMYfjw4RInThxp3rx5uNcOkMePH1eHy5Qp03/G2bt3r3zyySfy7bffSu/evfXvezXGWrlypTz++OM6v4ULF0rVqlXDPTe70BAwBAwBXwSOHDki69evl/Pnz0vGjBmlSJEimjTRzpw5ozEH0siRI4cULlw46EQCydqMGTN0jdGiRZPWrVtr/F61apVcuHBBMSlZsuRtIgHhtGzZMhUWNWvWDEkwvWBZJ06c0P0mOUUIVKxYUYUCpL98+XKBn5o2bapLYZ27d++WjRs3qkDImjWr5MuXTzkyoi3gBcKUKVNk6tSp0qpVKylVqpTgKJ9++qk6R9++feXw4cP6HqqZLJ/3ARW1nSJFCgUVgYGKTJw4seTMmVMxO3XqlEybNk0FQoMGDfQ31125ckXy5s2rf/sKhPfee0+OHj2q42Og/I06zZYtm47FnDp27CgFChSQkSNHylNPPaWKjs8PHjyom4iqw6iZS65cuVTt+0PlRdQI7HpDwBAIbAS2bt2q5EgM+/777+Wtt97SxIb4QXwkbhF71qxZI2XKlJHs2bMH9oLCOLu1a9fKoUOHlPiIwcT6bdu2adwnFs+fP1/atGlzW6V3586d+j4CoUOHDp4STXAGwgeu+eabb6RTp0663/v27ZPx48frfnft2lVRRBRMmDBBOQZ+W7RokTRp0kTSpk0bRpT/2z3gBcKsWbPk77//VqMvW7aszJ49W7N0VFSPHj1k0KBBWm5CECRJkkQyZ86sn1FSQlCgtFDYkDMG9fHHHyvoGNuIESN0rGbNmqnzocLoU716dVVt3bp10wpCz549Va2h0KgScCSBw2KAvEZc9OrVS0VM7dq11VBfe+01WbFihbz++uvqwGwi1wE4/VOmTCl169b1lNFG2NpsAEPAEIgQAmSWw4YNkxYtWkj69OlVICAYiI2IAmIfiUudOnUidJ9Au5gKLbGcGE8sL1++vK4dQbR582Y5d+6ctGzZMuTYGVFAxYFkb+nSpRqTvXb0sn37duUcuObVV1/VowM4Cy5kbV26dNFtclVr+iOe4D44DDEZ0eYJgUAmDsmXLl1aBUKFChXk119/lQ8++EA++ugj+e6772THjh1qCIgFylH0odyG0kYoJEuWTCsGVB0ovbDwxYsXK2lXqlRJN4HyHRuSJUsWzfA///xzGTBggKpPXuOEjIUwoBLAb8al3IdAQOkhBN58802d18yZM3VsNo5KBiWj5MmT6wYyX1ShKxNGdCPtekPAEAhuBCC9BQsWaGW0ePHiISVkkhpK7cQW4hpEEmwCgXhLHEUIUE0gYaOUjiAi24YkEQ1k2cTgefPmqZDInTu3TJw4UY8k7vaMQiBbzKZNm5Rj4CbWy7rhDgQCXINAINmlIg33rVu3TisL4MKRiu8zCuFdpycEAoROaQXj4KwJACjjAxBEDIk7gUBZhQc7EBOIhbZt2+r5DSUpwOR9lCQLpxTDexwDAC79+U0VgnKdEwjvvvuuCgPInIoBqhV1tmvXLlW0nH19+eWXOg8nEPr376/ngjgu4oLrKA1lyJBBx2fzChYs6KlzsfAamV1nCBgCEUMAcUAllTIyMYy4Qwwj8aBt2bJFS+0cdxYtWlSJMZga66ZRNRgyZIhWBsqVK6fxm+NgYi3igJhKaX7s2LEhD7fzHNs777yjMd0rzXe9cBxH1mPGjNH1IYYQQJ07d5Y8efIoL8JlcB9JMVUGBAVcGdEjbE8IBFRT0qRJ9TiB7JxFDx06VEv/gIFSpKyGCMBIcBQIHcKfO3eulqAQGZT1ed6ARn/UOMcAJUqUkP379+v7gM05Tv78+UMEwldffaVHBXPmzNF7odgwQoQIZb7KlStrX0RAw4YNdY7Mj7H53bhxY60kUMGguoFTFypUSIoVK2YCwSsea/M0BB4iAhAeR5XEJmIhcebnn3+Wl156SauY48aNU+Lgsxo1avjlAbWHuNz/3JrEjYyamMtzZ1QEqB6cPn1aYzlxmaoJsR7RQCJGLKf6zDF1u3btNFZ7pZGEUnGmwRnPPfecij/37QaSzTfeeEOrJySbfMazdiSuHJfDc1Sagl4goA45BkAkAAACAHXFMwSoJYDhhz44SqxYsbTMAlD8DViQP86DSKD6QGMMji0oXVGaox/XMQ4PD1Km48yL7J/ryfoxRvrRB4GAUdKP+zI3DJPxKYWhcFFfzBNlx3yYJ2MwF65hA7nGmiFgCBgC90OAWMTzB+7JdOIMMYfnDiidU810MZDqQkSJIdB2wzd2EndZ/4EDBzRm00i6iLOQKTi4r6WTzJEw8g04L8VaeI8106hcszb3DAVrYu2siT7YBHwGt9DgJJJh97X7iOxlwFcQfEstvgvlfZzgXp9HBJTwXHu3edxv7twj2Jw4PLjZNYaAIRA6BFw8cb1940egxMHQrcR6eQWBgBcIXgHS5mkIGAKGgCFgCAQTAiYQgmk3bS2GgCFgCBgChoCfEDCB4CcgbRhDwBAwBAwBQyCYEDCBEEy7aWsxBAwBQ8AQMAT8hIAJBD8BacMYAoaAIWAIGALBhIAJhGDaTVuLIWAIGAKGgCHgJwRMIPgJSBvGEDAEDAFDwBAIJgRMIATTbtpaDAFDwBAwBAwBPyFgAsFPQNowhoAhYAgYAoZAMCFgAiGYdtPWYggYAoaAIWAI+AkBEwh+AtKGMQQMAUPAEDAEggkBEwjBtJu2FkPAEDAEDAFDwE8ImEDwE5A2jCFgCBgChoAhEEwImEAIpt20tRgChoAhYAgYAn5CwASCn4C0YQwBQ8AQMAQMgWBCwARCMO2mrcUQMAQMAUPAEPATAgEvEC5fviwXL16UW7duScyYMfXnxo0bkihRIuGz+PHj/weKc+fOab948eKFfPbvv//qdbx/v0a/06dPy/Xr1yVZsmTan3tfvXr1tvG4982bNyVu3LgSPXr0cG0H17M21hKWduXKFZ1XWO7LutwP97p06ZJe74tRWOZwZ9+9e/dKlixZbsMb3GhhmWdE5mDXGgLBjsC1a9c07sSOHVuiRYumy8Wv8WcXo/jsscceCyooLly4oPGetdISJkwoceLE0fhJrCaOxYoV6z/rBi/iPnHai5gQQ1kj63NxlNesK0GCBMoD2APY0Jd+MWLE8NveB7xAWLp0qaxatUqBSJUqlSROnFiOHz8u9evXl+XLl8sTTzzxHzDGjx8v6dKlk3LlyoV8BoDbtm2TokWL3hc8jKl3794qPJ555hkdB5A2bdokZcuWDbl29erVcvLkSSlZsqQkTZo0XBuyf/9+HbdOnTphup5rMmXKFCZhgfGcPXtWcLQkSZLIwoULdd6+GIVpEnd0rl69uvzxxx8h72K0rA+jZq7WDAFDIGIIQI7EHXz48ccfD0mOiE9//fWXvp85c2YpVqyYkmcwtWXLlsnmzZtVDBw7dkyefvppXeuSJUtUHBFj7lw3eMERZ86ckRo1anguUWGtxNBFixbpeklYSX7Za0RCrly5pHDhwnLkyBFZs2aNYsPrrFmzPjARDq1tBLxAmDhxoiqjChUqqDLavn27kK3WrVtXJk2aJM8995wcOHBAzp8/r0SOiMCJ6Js7d269Nl++fIKBTZkyRdq2bSvZs2dXfMjEDx8+rAaE6sbITpw4IR9++KG88847Urx4ce1HRWH+/Pm6SYcOHdLXzIF7MC+Il/tDigUKFFBlv2/fPnVYhEbGjBlV1Jw6dUpVLhuIoh0yZIhez70hUjKADBky6Pj05Vpes/G7d+/W8bNlyyYbN26UvHnz6mucxVVW0qZNq31ZA3MCjxIlSoRUW2bNmqVjV6xYUZ2N+zEOFYz06dPr6507d+qamR8GCDaIJnDds2ePzp/gw/y4B0q2VKlSUrNmTRkwYID2RcSh8H/55Rft37hxYx0Ho+Y1+2JVhdC6qPUzBP4vAsScBQsWqI+RvLjEhJiIOK9ataqQUCHWg02UE18RAsTzvn37SqtWrTT2/fPPPxrjIM2GDRtqrHVt165dMnfuXCXVDh06+I00o8oemTfzZ2+7dOmiMXrMmDEap0lMeZ+9JmbzXurUqZV3sAMSW3+0gBcIVAMgIzJ/Ml+IFkGAInzvvfekV69eMmLECEmTJo1WGnLkyKHEDbg4ydatW+Xll1+WefPmyZ9//imtW7eWSpUqaamKigKGBZlBqpA1ouGLL76Qli1bapWCshT3g/zeeOMN3RQIEmHBhlFVmDNnjo5BRQGBQFaOIEFMQOJFihTRSgHkTBm+fPnyaqydO3eWb775RgYNGqTlItaAKIGIMW6UIetkDRAspA25Q/QYAYbBfbjm4MGDihH9WDsbO3r0aBk5cqTiwHvDhw/X97l2x44dOj/EEiq1adOmqsYRGJA4n7344osqyCB2rhk6dKgGJfrQGJOAxbhVqlSR999/X+8PtrweNmyYrhPHZZ4IoZQpU6qYeNBRjz+M28YwBIIFAQiS+IX/4GPEKicQiEUQB4kHgp2YQbYZjI0498MPP2gShziYOXOmigLW/dRTT4VgQmyaPn265MmTR2NPmzZtPBdziLMIon79+skLL7wgJIDE5K+++kr5AjGIIIAXCxYsqMkjsRh+ISn2Rwt4gfDrr78qWZJ1QqCAhkM4gQCZDx48WEtuKErKToBGX0gKx3FZPcQKKdMgbhyOzPy1115TAYEKA+gvv/xSPv/8c82EaU4gIBioTiAUKPuQQSMMuJb7Y5QIDdQtYoVKAnNHSJAxIxAQMPnz55e1a9fqvZ9//nmtJLChOD0iA/JmflOnTlWFOG3aNGnfvr2SOYKF9ULYZBRg0axZMxUC7pwKo6IqgPjp1q2bEjMOxJwgezJ+HIv1Mc67776rY3C0wlx4f8KECVo14H53CgTWSHCiH1iDR+XKlVUsMB9+165dW2bPnq39EFFgRMuZM6dWLayC4A/3tTEeBQTwZ0rlBGt8Z926depTiAD8kzgyduxYFQ8kRxAlfwdjI1EjfhFvqaROnjxZkidPrrGPCi9/Ezup+BJ/EQhUoUkMiYNebAiC5s2bq0Bo0qSJJl4kcdgERwtUmcED7iN+IxDgGH+0gBcIHCOQbUJAkMr69evVIZxAADxEAOoJQuM3Wb57BmHcuHFKrADKEQOlGicQKN8wFuqSvyHR+wmEBg0ahAgEzvCdQPj99991fhgpjona37Bhg4oaKgc4daFChVQsrFy5Uo9HfvrpJ3n99de1P4qYrJo5k8UjQnACDJt1ooTvJhDI8hElTz75pAoEKhuo6aNHj6qjIJKYA47iBAL9qXAwf5Rn6dKl5X//+58KBJTq999/r8RP5QaDpLkzPIzPPQdCpYUABd4YKPMEdwTC4sWLVZwhyBAIzA+R5UqknTp1CrozUn84o41hCNwNAQQ6sYvsGb+mqvfss8+q75Gg4PskGJAhpEEcoNIYbI0EkFhJ3CR2de/eXWrVqqVVWRI24idVVI52SSwRCsRk4hFHxv4izajG1VcgUDV/5ZVXNLYTbxGEiERiMMknfMfeczzsjxbwAgGFyFk8mTRtxYoVWlr3FQgoKkCC0FBSiIg7BQJZfNeuXfU8nGspgzMO2S7CAxLk6AFj+/jjj+9aQXjzzTf1OAHCxVgp3aPWyPARIChUiB2BwHtky4yLQIFMIUhEQrVq1VThduzYUa+hLIShM38MHcHBwyaIiXr16mlVAdLH2Nl8d94IGSNSfAUCc6KkRpAAA8SI++YHmQeBBiyZI+TNfBEIlLA4aqDKgdGxPlQ3GFFtoAqDo9Ef59yyZYveg7UxHgLHVyDwGoFAGZDKC/NnHaypR48eelxizRAwBB6MAOIecUDljnN4/JgqAQkEfstRKceQVA2JZTysR2IQbI2jWIiPSisxDTJ0z2oRkzmXJxHhb2IpyRB4EYfatWunJOrF5isQ4DYq3+w1lSWSVirOJJVwIAkiySox2h8t4AUCzxxg9Chnmtt0p6QxBrJ/iJOze4gfBwEgfhyxQq48mAcpugd4cDycDrKEFCFUiB5ShNzd10XIliFPzvggTvqzGWwSGTX3AEjeQ9lhvMwFAmXuCBw2k+uYL2IBw0W0cA2VgBQpUqhYoA/EzxjMjzkxBn1Ym/tWBWNwJMKRC1UIruGbGpxLgQ3OQDWCsht/cy1z5EiAe7E2fsCIjMTdBwejcX8yFNQ477EW5sw1BCjuyTgIIY5tqJjwLARzQhTxGYIAwQFGXAuONESFHTH4w31tjEcNAR5QxL+cSCdOEUNIPogtLjEIxmd8SDaIr1RNWDPxDOHk1o0oIJ4TW+hHAy+e5SLWuq+Fes1m2FvWBj9QFQEHGs8hENvBAV6CL3hQEW7w11oDXiDcbzMhXcjtxx9/1PMXyIlSGxnto0hACATKjQQQxAvOQpUCh/JXQ8BwpINQw0AxTCoz/vzurb/mauMYAoaAIWAIhB8BTwsE948fuewdVYmCDsZ/KCQ0Wwwe7h8Ocf8oCM8T+PMfCHH/cAfKPLLuEZq1Wh9DwBAwBAyByEXA0wLBQeP+dS1e+5MMIxd6G90QMAQMAUPAEAhcBIJCIAQuvDYzQ8AQMAQMAUPAmwiYQPDmvtmsDQFDwBAwBAyBSEXABEKkwmuDGwKGgCFgCBgC3kTABII3981mbQgYAoaAIWAIRCoCJhAiFV4b3BAwBAwBQ8AQ8CYCJhC8uW82a0PAEDAEDAFDIFIRMIEQqfDa4IaAIWAIGAKGgDcRMIHgzX2zWRsChoAhYAgYApGKgAmESIXXBjcEDAFDwBAwBLyJgAkEb+6bzdoQMAQMAUPAEIhUBEwgRCq8NrghYAgYAoaAIeBNBEwgeHPfbNaGgCFgCBgChkCkImACIVLhtcENAUPAEDAEDAFvImACwZv7ZrM2BAwBQ8AQMAQiFYGAFwhXrlyRixcvKghx4sSRuHHjSrRo0eTq1asSPXp0iREjxm0A3bp1S1/TJ6zNXct/GX39+nX9r6N579y5c5IqVaqQ4fiMduPGDf08duzYcu3aNZ0br5mXNUPAEDAE/IUA/6X95cuXNS7FixdP4577r+2JOadPn9ZbxYwZUxImTBiu+OevuUbWOKwfPiDOEnNpN2/eVH4AiwQJEvxn3cRl+sAdDq/Imp8/x2W/WSs8x9xZ7/nz53X/Hb+x3lixYulrbODSpUv6G/uAg/yx3oAXCEuXLpVVq1ZJ/PjxlaRz584t2bJlk+3bt0uyZMkkbdq0t+3L8ePH9XXKlCnDDNDhw4f1PjjY3r171dkQB6NHj5aePXuG3Gffvn1qiAcPHtRNK1SokOzZs0dKly6t88qbN68/bcXGMgQMgUccAWLTunXr5MKFCxr/ChQooKQBCUCc/fr1k0SJEkmmTJmkRo0aIQQaLLCdPXtW1q5dK0ePHtX4XK1aNSXBjRs3yu7du3XtlSpVum3dkOzy5cvlzJkziomXErcTJ07Ipk2bBD5LmjSplC1bVv788085dOiQigBEUZMmTdQWWCdcBD4ICviI9+GviLaAFwgTJ05UACDfDRs2CIKhXbt2SsTp0qVTIYCBoKgTJ04sK1euFIwJg0A9ci2LzJ8/v4LtlHbWrFnVuQAWp2Oc2bNnS5o0aaRIkSLaF7GAYvvuu+/kjTfeUFHAPdkkjI37IBAQBH///bfUrFlTunTpIm3atFEVR+M+ODctffr0Ed0vu94QMAQeQQTGjh2rGWWZMmVk5MiR0rJlS40txDBi0Lhx46ROnTpKkBBKeCqogQzrvHnzNI6WL19ePvnkE+nWrZtWcMeMGSNNmzbV+E1G7SsC4IU//vhD8enQoYNfCDOqMJo2bZoKG4QB/NO2bVsVRvARfPbTTz8pD5IgIwqmTp2qU0MgIiTr168vqVOnjvB0A14gTJ48WYm6evXqutgePXrIk08+qVWFfPnyqTCYNWuWKuqMGTOqiiL7f+aZZ2TFihVajkJJobY2b94sO3bskFOnTmklAkeaP3++pEiRQvLkySMzZsxQJVqhQgU5cOCAVij4+eyzz/R6rsuSJYuKDhyReVFhyJw5s27iu+++q+LglVdeUUNlHq+99ppMnz5d+9etWzfCG2YDGAKGwKOHwPjx4zWWValSRdq3b69xpWjRoioEjhw5IjNnzpQcOXJokkQy5I/sMZBQ3rJliyxevFiSJ0+uVQPIcdKkSRpXc+bMqWV4Yrg7eiAuE3d5b9myZRqXvYTJ6tWrlegRPQijZs2aaQUdQchnJMKsidcks0uWLFHBWLhwYendu7fyFbwU0eY5gfDtt99K8eLFlewRBZA0ZaRcuXIp6SMQAI0KwsCBAxUwqg+8h4FxZoNIAHRXVWjVqpXiiDIvVqyYVgQwLsQC4mHYsGFawuM+VDEyZMhwV4Hw9ddfq0jo06ePVhmoSODEHElgqAgaa4aAIWAIhBUBYhcZMVXIb775RiuVxEEEAmQIQVAJpWpasmRJjYfB1KgYE5NZL2skZpMsEq8RRRAZsZ4YyzMHJH70Je5ShW7durWnjl22bdsmVE2ofiAMIXyq2zQS1ubNm+sxAg0uQzAglFj/F198Ic8++6wKhIg+h+ApgYADUFpCOf31119SsGBBNQrUJQYEkAgAQKHcj0CoXbu2AglhD+D8II8AACAASURBVBgwQBo0aCDr16+XY8eO6VECvzEe2s8//6znNwgHX4EwdOhQ6d+/vwoErqVScbcKgq9AoByI086ZM0dFQsOGDUMeKAkmx7W1GAKGQOQjQDxBIEAYI0aMkLffflsJgwQJIiTm8ZDamjVr9Iy6YsWKkT+pKLwDsTx79uxSrlw5oZrC3yRrHLkQr8mqeRaDdXM+z9EDlV6OehFX77zzjqcStClTpmjFg/WSoPJ8BTyydetWPU547733FH135MAaOW6A0xCQCAqOG4JeIHD2RkkJg8BJUIuQPAaAYXBMgHHgOBwHoJo4fgBMQGvUqJGWXhACH374oVStWlWPChAbtWrVUpVG2Yr+PJ+AckN48DAM71NBQBxQ2uNMiHm4by7cecSAQBg0aJBexzEF41GVQKxQ0bBmCBgChkB4EKAKSXJC7CLOEY8GDx6smSQlZiqnZNYkSBzH8qxUMDWOkXlejJL7/v37pV69eiqMqNK6p/YRB+4Bcs7feUYM0UQfjiRI7LzSFi5cqFxEFdsdmXOE1LlzZ3n55ZdV7LA+uA6OoorEQ40cbcOJcBtcGdEW8BUEMn8cwH2dkU1m4c5YUImQP8YCMFQRIHeMBkWJo/AeZSeEBn+7r4DwGed39ON8h6oAr93XhHA2flDu/OYeqHYeCuFvxuFBGcbEMDma4N5sFscQvMdG8xANosGaIWAIGALhQYCYQhxEBBBbIA7OqDlKgASJgTSSFpKkYHtIkYSO2Eq8JWvm6IDsmONiYjvxHm6gD1zhvt1GfziEz7yECfvNNxmYP+tkT+EnKkRUzVkjPIRNOIGEDfAea0dE+uNbGwEvEMLjTA+6BlFBC035JSx93X0xYMpfc+fO1c2kehCaez1o3va5IWAIPLoIhCcWBSNahkPU7eojKRAiG173j1xQmaC6wI81Q8AQMAQMAUPASwiYQPDSbtlcDQFDwBAwBAyBKELABEIUAW23MQQMAUPAEDAEvISACQQv7ZbN1RAwBAwBQ8AQiCIETCBEEdB2G0PAEDAEDAFDwEsImEDw0m7ZXA0BQ8AQMAQMgShCwARCFAFttzEEDAFDwBAwBLyEgAkEL+2WzdUQMAQMAUPAEIgiBEwgRBHQdhtDwBAwBAwBQ8BLCJhA8NJu2VwNAUPAEDAEDIEoQsAEQhQBbbcxBAwBQ8AQMAS8hIAJBC/tls3VEDAEDAFDwBCIIgRMIEQR0HYbQ8AQMAQMAUPASwiYQPDSbtlcDQFDwBAwBAyBKELABEIUAW23MQQMAUPAEDAEvISACQQv7ZbN1RAwBAwBQ8AQiCIEAl4gXLt2TR577DGJGTNmFEFy79vcvHlTrly5ItGjR5c4ceKEaj7//vuv8OMa62EtjOEan9+4cUPXGS1aNO3v+/ndbkSf69eva/8YMWKEai736sS6Tp06JUmTJvU7zszz1q1bIWuL0ETvuBjMGBs8uQ/48ePbHP78BitnT7FixfLnVGwsQyDSEcDeL1++rDYeL148tWfa+fPnNRbQeI/PYseOHenzieobEHuvXr2qsdf5L++xdtbsGwcvXLigfV1LnDhxhONkVK6XeMX8fdcLWfvuc4IECULiNXEQ2+C3s407Y2F45h/wAmHNmjVq7Pnz5w/P+vx6DST6999/S+rUqaVEiRKhGhtCOn36tK4hbty4smnTJsmRI4ckSZIk5Hoc/9ChQ9qHTWVT6HO/hjEwVtasWSVFihShmsu9Op09e1bef/99/cmUKVOExrrzYgz6yJEjKj4SJkzo17HBDBzSp08vBIREiRL9JzDiaODJ3mXOnFm2bdumc8iXL59f52KDGQKRiQBEsXv3brXf+PHjS9myZQWCoE2bNk327dun5ABJlilTRooWLRqZ04nysc+dOydr167VWIKfV6tWTclz4cKFKpDy5s0rBQsWDBEBc+fOVazwf7Dp2LGjpE2bNsrnHd4bnjx5UuP78ePHJVmyZLqnc+bMkcOHDwsJHXGvcePGki1bNl0jsRCuBJPChQsrL/gjqQ54gTB58mR1CAz+zJkzCgakS7Dn/QMHDuj7GA0/GBKECyGhpk+cOKH9IZHkyZOrgdEfR8qQIYNcvHhRN4GMnT6QNI4IsaFUc+bMKRDo3r17tXrAZ7lz5w4RCJcuXdJNY8O4PwTL+BglgoC5rF69WlKlSiVFihTRv+nDvZgjG7p582a9F/Ndv369/PPPP9KiRQtdH0IC0YCx58mTR5UzGHDPX375RV555RU5evSorod7pUuXTtdw8OBBXTdj0BA1vI9YYc78zXX8hrg/+eQTef7551VsEHiyZMmiWLJusMFIGYPXzJk5ORXPffg8ZcqUSsRgzDW8Bl8MG8xKly6tWGN0BDMwQO3u2bNH5899mT8NrFkjcwXXjBkz6poQAlzPnJkDn3Pt1q1bJXv27Er8OAtzwpFy5cqlQQRM69evr/vHdcWKFdN+3Id1sM9gw5q5ztlHMGZi4Q1adt3DQ2DlypWybt06KVmypPoNccFlzMQ44hWksmrVKvWzYBPA8+bN03hQoUIF+eijj+Szzz7TuEkMI64uX75c6tSpE5LgEIOJycSB7t27y5dffqnx3ysN0ccaEILfffedtG3bVuMjMZ7499NPP8lbb72l8ZJ4PHXqVF0acRIOadCggXJORJtnBAKEs2HDBiV1HCFNmjRSpUoV+fbbb1UZOrIhw4eYMBoMyJXkIKo333xTCXrHjh1KBDgRv+kHQaDSMMKNGzeq89Hvf//7n/z5558hZMqmcV9XQXBOiZPu3LlTunTpImPHjlViZIMgGIyXOZYvX15+/fVXJS1IqFmzZrqm2bNny+OPP64CgdeIgWeeeUaFCe8jCBBKr7/+uhIj1/oGDD5DQOEsKGnEBmrbES6kynoqVqwoCxYsUIPiNSIGAytQoIA6XKVKlVTUEIh69Ogh06dPV8KnIWbAZ9SoUbom1ka/cuXKKUkzFviydggX3NkrSnu///67KlocGFGD0GANXFe3bl0ZOHCg7hd74HBl7QQ7xAZKumfPnvLBBx9I8eLF1QEgeeZL9oAIWrFihVZdqlevrnjzPhh8+OGHek9ECJgyJg3ljbhkvfv371dn4zP2HNsCM0QN+FszBB42AkOGDFFiwIeJhc7PXRkZwU0cI5a0b98+RLw/7Hn76/5btmyRJUuWaAKD/7dr106FQufOnTXe4+vEHGKzbyM5IIY0bNjQU0cMxCLWSXJEYvTcc89p3GS/qRQQ41577TV9TdIFNsRYqge9e/eWJk2aaBId0eYpgQA5U1oi0+vXr58G9e+//16+/vprxQFQAa927doKbNeuXTVTJOBPmjRJxcSyZcvUwTA4ssdChQqFVAUQDIMHD1ZigwBnzZolbdq0UVKEnCAtDA4ickS2a9cuJVFIHFKFIHFQSI8Sz7Fjx3ROZORscJ8+fVTd/fzzz9KtWzfp27evCgXEBXNmbRBW69attQ8ktX37diVQ5srccQQUJOTK+IiFVq1a6RiQKaTMxpKdQ/4Q+ueff67zQkxArNwDwYLDsS5KcDgc1Q3wQ8ggdpgfImrx4sU6P/AjiylVqpTeE0whaK4ZMWKEqvVhw4ZppQGxg3BDdGG4zH306NE6DxrXM6+RI0fqXrpjF7Ak0wdXFDPBAId48cUXpWXLlloVwjHYV/qwRnDgGIr3CZQIoHHjxul82COI/8knn9T9RZwgDmrUqKGCgrWCLxUF9gzVzp4hJhFl1gyBh40A/g4REAOWLl2qvgAh+D6HMHPmTBW++GewNfx3ypQp6t/EBGIHcYH4RPJCsgI++LhrVFVILJo3b65Y+eNMPqpwJeZzTEJsJtGD8OEPGjENzqBiSiNuwX0kngjHL774Qp599lnlnIg2TwkEAjvBG6EAGb/99tsyaNCg2wQCxFKrVi0lbEgdIof0IDEI5YcfflBiQHFCWBgP5WcIAceaMWOGCgSIDedDNED2kCXkvWjRIt0YxmU+AwYM0I2BlD/++GM9D8RwES6QFEbL5qHmqCIgELgnhMc4OD4k+9dff4UIBJeNcx1EC1GRnTMvZxDMCXLlMycQMCqED5k+GTQkyHw5PuA+KG3IGpVNlYJyHWW3O59BoBRPfwQD4guBgELFULkXWTUCAfGEUKOqAdEipNgXSNhXIDAPKhyQL6LHVyDQf8KECbqXvo7dv39/dWqEWocOHRRDxgVHAgIijWMFBAJBEydBICBkqAqwH+wN11A9oG+9evVCBAKqHDtAcDqBADbsO2NzP6pRbq4RdTS73hCICALELfysUaNGWhVr2rSp+gc+SZzCxxDmPEeE/Qdbo8zOel0VlmojQgmfxmeJpyQwxBl3/MnnJE1UDt3zGl7BBTFEvKRCO3ToUKlcubKujbjNZ++9954uBREEiRP34BcSnW+++Ubtwx/Pk3laIKAOIQGIk7MXStuU2REIOMlvv/2mYoK/UVOoa66hTEfZCUN64oknNEOH0KpWrarqFHIg++Y6jIvzHbJWNgyyZLMQCJT1ULAYH+RLdo4jkyVTxkfxYciQNkcRzrgRCBwDdOrUSTMBSAqBAPFR1fjjjz+0pAQZQtCsjQdS3EN+zIfrITgEwvjx4/UBHcQImTrHBqyJEj4kxxw5NkFUYFg8L8D9qCIwNiIIoncPKSIQIE3KlcybdZLdc7bJ2pxAoMTF2MyLuSCOIHuEF/dmXxAr7APYccRAhQWs3Fka9+IaRIBrfEaZDPwZA7HA0QgBkHGZP6IAEYRAAFecBhHInnK8Q7BgHxFtVBAQL+wlAoeGCEAkgCOiElGHSDSB4JUQ+mjN05WciXHY80svvaR+w3NDxA18zB27eilTDu0ukrgh4PFrEiiqpySBPN+E3xNznnrqqZDnuUj2SMaIra7yGtp7BUI/KtWIAeIuCQ5VZ2IW8RvOIBkisSP+UwWG51zllGtq1qx524Pw4V1TwAsEiJxMHKPHIHAGVBMlJ0rLGAtEgeFAVDyUQtbJNWT87qlPQIM4IUqIx311EuOiHw0ygjCoKFAdwOjYCPfQISTHD8TvyuGQLCDyPvemvzsmQGQwFwgLYYEDIzQgIeZAdk8mzhEAROceQIS46EsWTJWAshmCxJUTWTMky/iU1iBPHAEiZw2sjZI7a2BshBF49erVSzjLpCEmEFPMg/WwDgyQMSFR7geuCCfu6/uQIvNiHzhCYL1gjRBBDLiHFLmGOfIDAYMNGQCCg3GZK4oX/Nlj5uga++xwBRPGRGgNHz5cqx/sB+NQtUBM4CA4EeulIsLa2Tvmxbjgz/q5n3vAkn1xD5fSjyoQ47L/zAnn47XvvMLrZHadIRBRBLBb/IRYg42SHRLL3LMIiAZ8H/8Nxsa6WT/+zg/rppEIES+I/SQ7VBLxZ3ydOE6sdYmDl3CBL4jR7qvsJLjEcoQilQTWiE0Q69xXPInnJJismXj9oK/KhwaPgBcIoVlEMPZBJPBwJJvM+f69vsqIQOBhlhdeeOGeZ2w8S0EfsnyeyfBiQ3RxVEJgwGkQKFRigjFb8uL+2JwNAUMg+BAwgRCge0rGzZP0ZNC+/yjKndNFMdLXfe3vbsshY0dtQqoR/UeVHhZcVByovjhV7L6e+bDmY/c1BAwBQyDYETCBEKA77P71xQdlyKHpF5o+AQrDbdPy/RcpH4SLF9ZjczQEDAFDIJARMIEQyLtjczMEDAFDwBAwBB4SAiYQHhLwdltDwBAwBAwBQyCQETCBEMi7Y3MzBAwBQ8AQMAQeEgImEB4S8HZbQ8AQMAQMAUMgkBEwgRDIu2NzMwQMAUPAEDAEHhICJhAeEvB2W0PAEDAEDAFDIJARMIEQyLtjczMEDAFDwBAwBB4SAiYQHhLwdltDwBAwBAwBQyCQETCBEMi7Y3MzBAwBQ8AQMAQeEgImEB4S8HZbQ8AQMAQMAUMgkBEwgRDIu2NzMwQMAUPAEDAEHhICJhAeEvB2W0PAEDAEDAFDIJARMIEQyLtjczMEDAFDwBAwBB4SAiYQHhLwdltDwBAwBAwBQyCQEQh4gXD16lW5fPmy8F/9Ro8eXeLHj6+/A7kxV/dfE0eLFk2nyutr167p3GPEiHHP6bNW+iVOnDikz82bN4WfmDFjiu9/c8yY9L9+/fpt/e82OH1v3bqlfePEiXNbF+5348YNfd/N9374nj59WvchduzYUbINzP3gwYOSMWPGkPsxX9YSK1asCNmD738hzd8OZ9+FcS9wBxswdBhdvHhREiRIECUY2E0MAWwTmycO+MZA7JY4iR/HjRtXPw+2xhqvXLmi62eNLoZeunRJfdL3PdaOb4KHawkTJrxv3A1UvFycI9ayJl7TiEfEYLfX2AY2wG+wwD58uSK86wt4gbBs2TJZsWKFBuXUqVNLzZo1H0iG4QXDX9exiSdPntSNckTPe+vXr5f06dNLmjRp7nmr+fPny8aNG6Vdu3Yhfc6ePSsHDhyQPHny3Ob8GMSff/4pe/bskbZt2953+jgYc9q+fbuUL1/+tr68t2/fPilbtmyoCO/jjz+Wp556Sh5//HF/QXbfcQgMhQsX1rm7dvjwYfnnn38kf/78kjJlynDP4/z58xo42Cv+PnHihOTIkeO28Y4eParOljRpUt0H9hAHnDRpkjRp0iTc97YLDYHQIoAP7N+/X329WLFit9k8SQJxA+GeN29e9ZX7JSGhvWcg9SMGrl27Vo4cOaLxs2LFinLu3DlZunSpXLhwQXLnzi2FChUKWffcuXNl69atmpjhs2+//bakTZs2kJb0wLkw923btmncq1Klisb6Q4cOqSDCHho3bizZsmXTNWIb69atU1EET+TKlcsvCVzAC4SJEyeqKoLUMHqCNASKIgQoMsgMGTLIqVOn9Adj4bNMmTLpa1QXDcD4G4Cd2oYIABTiZGzG4bMzZ84o6KhT7sd7EETmzJl1YyAM3oOY+Hzz5s2q5rgGRYcoGDdunOTMmVOKFi0qyZMnV+U7b948fc9l88yL93Fqp/bos3DhQmnatKn2Y07cE0OBkAkQiCXWlipVKn1/zZo1SlTcGydgLq7t3btX32ej48WLJ3///beKLNYAfoiu48ePq4GVLFlSf0O6ECC4cx+ck7lwPf0///xzFQgFCxaU3bt36zh8ljVrVr0PGNOfdTMXSJcgxmsybu6XJUsWXdeWLVvUubmGdSVJkkTny325hvWjngsUKCAzZ85UvBIlSqT7hUDIly+f3ov+zJc5cE/wdKKIz1gP2HAdQQY7YS3Lly/X8dhb7Ib1JEuWTMdhXdgCmLDX2Mq0adNUSDGfPn36yIcffqiBGTyxRfaEfqyZ9VD1cPN5YESwDobAPRCA5EiUdu3apcSAfbq2evVq9esKFSrIqlWr5Iknnrjt82AAlTiBX+GbJEPDhw9XPybxIk4jCN544w1JkSKFLhe/5X2u6d69u/Tq1Uvjj5fasWPHZM6cOcp3//vf/zSesB5i108//SRvvfWWpEuXTuPehAkTNF7BL4sXL1Y+8IcgCniB8Ntvv+lmo5ohXoj/ueeekxdeeEFJGsJ8+eWX1UAAD5VJUH7++eeVPMk0N2zYIGS9gA3ZEbw3bdokbdq00dI1SpT3UWkEe/pDYIyFWoVIIJnKlSvrb5yQjBNCQLh07dpVCZPXbGarVq3UICF+nJXfzLV37946BiKA8SFLyP2dd94JqTQwx/Hjx+tcIPdatWopcZEh1KlTR0kJocAYjMWxwKxZs/Q+rLVq1aqqpN2RzNdff62Y8Rrj+eGHH+TZZ59VNQoxFy9eXA2Le9F27typuLAWHIz7QMRkzeBUpkwZYU9YLwSPuoXQuR6yxGmXLFmivwliGClYMx7Cgz2cPn26VkgIevzu2bOn/PLLL6p8ER3gQkBgbxAIZAt81r9/f8Wf+datW1eDJQqafWLtOAqCoVy5cioq6Me9GQsbwi4gekQB9yhRooRiB4E71b1o0SIdBxHA++wP9kJWhmPiiPzN/UuVKqX7PXjwYA1cOBMCAXGCaATfSpUqKQb+KPd5KbjZXP2LAGKZhu/g/8QP17788kuNd5AFWTPVQGJFMDZi/Ouvvx5C+MQ1YhZ+DAZ3igDIkjjSqFEjT1VV2G9iL3GKePXiiy8qD9GId1TWwYG4Qpz766+/NLmBK3ivRo0ammxFtAW8QPj1119lx44dSm44AIT2yiuvyKhRozSb/Oyzz5TQIFayQFQXzkOGh3gg2EOKkPPYsWMVZAgNo4GM2ATEB2ICYnUKDQJAdDAe2TykRwnaZchUBijpkI1///330qNHDyUH1C1/U35GPGTPnl33yFcgQM6sAfIbNmyYEiBkQvvjjz/UABANU6dO1T5kuAsWLFDyJxi0aNFCSZvrID8cpEOHDqqqEQOQMETK5wgEnAORwhHH0KFDVVBhdJAp70P8ZOfcl/6sg4ZAYN0YIILFESGiAIGAimVOGCKB69NPP9VMmnuDJ9k692AfMPQiRYqoqJg8efJtAoGKxO+//y4tW7ZUA+da5kTFxzkCQREHYGxwgZwhbrAhg4LMEUtUInAm3sc+WCfihD5OUBBUyDZwJO7LHBFA2MTKlSvV1lgPGRn4YieMj30RiKpXr64CEXuhxImIw77YE0QE62TNTvBQZbJmCPgDAcQ5wtZXILz77rvSsWNHjW3YK/7TsGFDf9wuoMZwVVhiDDEQ/yUeEzPxcUSR77MZ9Cf5aN68uSYrXhHpxFu4hVhG7KGKTlLsjqapiDRr1iyEW6iiUEEidhF/SMSIUcTSiLaAFwgQLURDtsxvMsNXX31VBg0apAQAuZCFEqjJ/iFaSBmAIWXIDtKDiFHXZIilS5fWUhQkBEEgECAXiAGyxZAgV0r9kCRgMz5HEQAGkbjzehwVI/zoo480O+WsC6KEBLkPRxt3CgTmAEnj0CNHjlTRw6bSfJ9BmDFjhhoF5MpcIPo333xT1w8WEBHCwT2DMGLECBUUGAZECsGxdiocNASCE0us0z0TAZmiQMmyIX7I1wkEFLivQEChO4GA2GBfwJL5sIbRo0fr9eDPewgh+iPymBMVCAj+vffeU8KndAZ+CBEEAqJgypQpIQ8dYfgEv/sJBK4FI0ie+eFUBAwEBHuBM1Ge5X7YBwLBPbOBWOOoCWHFviIksIcff/xR9xgbofKAIEAgcMSAIOBIxQkE1PpXX32lJUDmwB6wZipRHNsgFILtTDiigceuDx8CvgIBMsAuqb6RsGDH2BzZJ5WrYGokbsQ6YnDt2rU1CWKdCHZ8kXiNiHfHwfg/sQM/RCx56WFil0RRFYW/SFQRRKyRJAROfP/993V74UASV/gBroD7SJ6pEhOHIiqKAl4gkPVTxkUBQsCU0iEVsnYnENq3b68EBymREUO4kAEAk73Nnj1biRKSQihAYJSmIXdXGYAkIVT6QIh3EwiIBbJllBqkSEWD7PNOgUAFAeLh7LpatWpKSr4VhPAKBCoZHK2glHEQiAyD8RUIkBik7RoEyfEKa3IVBPDjmARBhSiiPA6Zsh5K6Agu3mO9rIMyPSSJsVAVoQ9CggCF6MIxIWYIdciQIbpXVF4QQIgY+mDEjPfkk09qtk3lAfJFHYOXr0AYM2aMVhpYIxkR1RTEFtUT5sy+uyMG7sVaONJgb7ifI2TWRGXl6aefVpwQKJzfuv0jqNLYD+yB6xAIVIWoSIEreGMTBGKw6tevn2LBHkD+2ObAgQMVLwIVe01w4oiBDIB1Us0K9G/eBBOZBPNafAVC3759VfwSW/BJYhgiFR9zVcBgwYKkgjXiX/gaFU2SKSrAxAZiF0kEMZdkD98k5hN/EfJe8j/iG8dE7lk31s7xCbz2wQcfqFggpnAszhGoe66LeEMMJNF75plnlC+DXiCw4QR/9xVHAjnBFyJwT3liEJSEIUxIC4dxmSLESAmG4E+1wZ3bky2S3QMiZEaGh2BAqTIuAgC1yhEFzgYxua/TsBEQGA6JaqN0zf2obkAYZNJci0BBxTEW45C18zdERcbKvFkfm8pYNEgNMkUJYiCMyZEI73M940JUzAfCx1jIuunPWJCUe1CH8SBnRBNrgpB5VgCCY268x/k492A97oFLcGEcCJ0SP8IAImaOOCLii3VDmpQzGYe/yWB4roA9YL9wZHDloUTWz7z4QXDQn4aRgxeYIG4YC2LmnsyLvWM+VDIQHIyDcOD+7oFUsOAebj3sKYESR0M0gjPjMBfmyP5xLWtnTWQZOBlrYz6MDd7YBdUIHI7x6ItgoTEOqp0AxJ6wbvaJ9bF2Nx/WxHURddRgCfS2joghgO3ip/gnQhffxr6xS3wDOyYWhObryhGbSdRejY/iZ+5rffAAJEqMYv38UL0jbuDn+DbXeP0hYfaUmM3aWCNHpggF1ugemMcWiH3ELH7DJ8Qwf3zdNeArCL7fU8ck3dPpvuYJgJTXMQrIEgJFCFBqd9fzm7I2zgNZQD4obd+vHN4ZxLnmXoHdjRuez+93re9nd/4NIZEtu29MQEYcOzhc7uayvmu4E8u7XefbH+fjfhggRhmatd5rbXeu5W776Ma/HwYPmoPvmnzXe+e/H+GwunMeoZmDrx36Xn+3e5gwiFoiedTu5vz1QfHI67jcLSbcy4fvFw+9jkNUzz/gBcKDAMFwIHyyY/7mB0Ljx1dF8z5ZqjM0FBiZqJeUNmduZL6sgXmThft+pfFBWIX1c/d9W+515z+uFNaxrL8hYAgYAoaAtxDwvEDwhftBKvpBn3tl6+5X2fDKGmyehoAhYAgYAoGNQFAJhMCG2mZnCBgChoAhYAh4BwETCN7ZK5upIWAIGAKGgCEQZQiYQIgyqO1GhoAhYAgYAoaAdxAwgeCdvbKZGgKGgCFgCBgCUYaACYQog9puZAgYAoaAIWAIeAcBEwje2SubqSFgCBgChoAhEGUImECIMqjtRoaAIWAIGAKGgHcQMIHgnb2ymRoChoAhYAgYAlGGgAmEKIPabmQIGAKGgCFgCHgHARMIE3JiKQAAAHlJREFU3tkrm6khYAgYAoaAIRBlCDxUgcD/tsW/92//oU2U7bfdyBAwBAwBQ8AQCBUC7n8w5n/z9Wd77N+7/deBd9yB/443FN38OS8byxAwBAwBQ8AQMARCiQD/WR//uaE/W6gEgj9vaGMZAoaAIWAIGAKGQOAj8H8AWicQYYwt7XAAAAAASUVORK5CYII=;" vertex="1" parent="1">
                    <mxGeometry x="10" y="220" width="318.04" height="200" as="geometry"/>
                </mxCell>
                <mxCell id="9" value="" style="image;html=1;image=img/lib/clip_art/people/Farmer_Man_Black_128x128.png" vertex="1" parent="1">
                    <mxGeometry x="70" y="140" width="80" height="80" as="geometry"/>
                </mxCell>
                <mxCell id="10" value="" style="image;html=1;image=img/lib/clip_art/people/Suit_Woman_Green_128x128.png" vertex="1" parent="1">
                    <mxGeometry x="200" y="140" width="80" height="80" as="geometry"/>
                </mxCell>
                <mxCell id="12" value="" style="group" vertex="1" connectable="0" parent="1">
                    <mxGeometry x="540" y="105" width="80" height="325" as="geometry"/>
                </mxCell>
                <mxCell id="6" value="" style="image;html=1;image=img/lib/clip_art/finance/Shopping_Cart_128x128.png" vertex="1" parent="12">
                    <mxGeometry width="80" height="80" as="geometry"/>
                </mxCell>
                <mxCell id="7" value="" style="image;html=1;image=img/lib/clip_art/finance/Dollar_128x128.png" vertex="1" parent="12">
                    <mxGeometry y="125" width="80" height="80" as="geometry"/>
                </mxCell>
                <mxCell id="8" value="" style="image;html=1;image=img/lib/clip_art/finance/Credit_Card_128x128.png" vertex="1" parent="12">
                    <mxGeometry y="245" width="80" height="80" as="geometry"/>
                </mxCell>
                <mxCell id="14" value="&lt;font style=&quot;font-size: 24px;&quot;&gt;Hypomanic States&lt;/font&gt;" style="text;strokeColor=none;align=center;fillColor=none;html=1;verticalAlign=middle;whiteSpace=wrap;rounded=0;" vertex="1" parent="1">
                    <mxGeometry x="19.02" y="80" width="300" height="30" as="geometry"/>
                </mxCell>
                <mxCell id="15" value="" style="image;html=1;image=img/lib/clip_art/finance/Stock_Down_128x128.png;fontSize=24;" vertex="1" parent="1">
                    <mxGeometry x="550" y="-10" width="80" height="80" as="geometry"/>
                </mxCell>
                <mxCell id="16" value="" style="image;html=1;image=img/lib/clip_art/finance/Coins_128x128.png;fontSize=24;" vertex="1" parent="1">
                    <mxGeometry x="390" y="200" width="80" height="80" as="geometry"/>
                </mxCell>
            </root>
        </mxGraphModel>
    </diagram>
</mxfile>